<mxfile host="app.diagrams.net" modified="2023-03-26T13:07:46.651Z" agent="Mozilla/5.0 (X11; Linux x86_64) AppleWebKit/537.36 (KHTML, like Gecko) Chrome/111.0.0.0 Safari/537.36" etag="jK17QYSx57Vc68TxCrux" version="21.1.1" type="google">
  <diagram name="Page-1" id="_b6RHdB-Dr-CgbnpsuCy">
    <mxGraphModel grid="1" page="1" gridSize="10" guides="1" tooltips="1" connect="1" arrows="1" fold="1" pageScale="1" pageWidth="3500" pageHeight="2000" math="0" shadow="0">
      <root>
        <mxCell id="0" />
        <mxCell id="1" parent="0" />
        <mxCell id="5TA8-3koPhKkjeQelwCI-4" value="" style="whiteSpace=wrap;html=1;dashed=1;movable=0;resizable=0;rotatable=0;deletable=0;editable=0;locked=1;connectable=0;" vertex="1" parent="1">
          <mxGeometry x="450" y="150" width="2530" height="2216" as="geometry" />
        </mxCell>
        <mxCell id="5TA8-3koPhKkjeQelwCI-37" style="edgeStyle=orthogonalEdgeStyle;rounded=0;orthogonalLoop=1;jettySize=auto;html=1;entryX=0.5;entryY=0;entryDx=0;entryDy=0;" edge="1" parent="1" source="5TA8-3koPhKkjeQelwCI-7" target="5TA8-3koPhKkjeQelwCI-8">
          <mxGeometry relative="1" as="geometry" />
        </mxCell>
        <mxCell id="5TA8-3koPhKkjeQelwCI-7" value="SSD" style="rounded=0;whiteSpace=wrap;html=1;" vertex="1" parent="1">
          <mxGeometry x="902" y="2620" width="120" height="60" as="geometry" />
        </mxCell>
        <mxCell id="5TA8-3koPhKkjeQelwCI-8" value="HDD" style="rounded=0;whiteSpace=wrap;html=1;" vertex="1" parent="1">
          <mxGeometry x="902" y="2775" width="120" height="60" as="geometry" />
        </mxCell>
        <mxCell id="5TA8-3koPhKkjeQelwCI-9" value="Cameras" style="rounded=0;whiteSpace=wrap;html=1;" vertex="1" parent="1">
          <mxGeometry x="3040" y="714.48" width="120" height="60" as="geometry" />
        </mxCell>
        <mxCell id="5TA8-3koPhKkjeQelwCI-10" value="Main_UI" style="swimlane;fontStyle=0;childLayout=stackLayout;horizontal=1;startSize=30;horizontalStack=0;resizeParent=1;resizeParentMax=0;resizeLast=0;collapsible=1;marginBottom=0;whiteSpace=wrap;html=1;" vertex="1" parent="1">
          <mxGeometry x="1560" y="184" width="140" height="120" as="geometry" />
        </mxCell>
        <mxCell id="5TA8-3koPhKkjeQelwCI-11" value="Item 1" style="text;strokeColor=none;fillColor=none;align=left;verticalAlign=middle;spacingLeft=4;spacingRight=4;overflow=hidden;points=[[0,0.5],[1,0.5]];portConstraint=eastwest;rotatable=0;whiteSpace=wrap;html=1;" vertex="1" parent="5TA8-3koPhKkjeQelwCI-10">
          <mxGeometry y="30" width="140" height="30" as="geometry" />
        </mxCell>
        <mxCell id="5TA8-3koPhKkjeQelwCI-13" value="Item 3" style="text;strokeColor=none;fillColor=none;align=left;verticalAlign=middle;spacingLeft=4;spacingRight=4;overflow=hidden;points=[[0,0.5],[1,0.5]];portConstraint=eastwest;rotatable=0;whiteSpace=wrap;html=1;" vertex="1" parent="5TA8-3koPhKkjeQelwCI-10">
          <mxGeometry y="60" width="140" height="30" as="geometry" />
        </mxCell>
        <mxCell id="5TA8-3koPhKkjeQelwCI-12" value="Item 2" style="text;strokeColor=none;fillColor=none;align=left;verticalAlign=middle;spacingLeft=4;spacingRight=4;overflow=hidden;points=[[0,0.5],[1,0.5]];portConstraint=eastwest;rotatable=0;whiteSpace=wrap;html=1;" vertex="1" parent="5TA8-3koPhKkjeQelwCI-10">
          <mxGeometry y="90" width="140" height="30" as="geometry" />
        </mxCell>
        <mxCell id="5TA8-3koPhKkjeQelwCI-16" value="API" style="swimlane;fontStyle=1;align=center;verticalAlign=top;childLayout=stackLayout;horizontal=1;startSize=26;horizontalStack=0;resizeParent=1;resizeParentMax=0;resizeLast=0;collapsible=1;marginBottom=0;whiteSpace=wrap;html=1;" vertex="1" parent="1">
          <mxGeometry x="1765" y="186" width="240" height="138" as="geometry">
            <mxRectangle x="305" y="162" width="60" height="30" as="alternateBounds" />
          </mxGeometry>
        </mxCell>
        <mxCell id="5TA8-3koPhKkjeQelwCI-17" value="+ field: type" style="text;strokeColor=none;fillColor=none;align=left;verticalAlign=top;spacingLeft=4;spacingRight=4;overflow=hidden;rotatable=0;points=[[0,0.5],[1,0.5]];portConstraint=eastwest;whiteSpace=wrap;html=1;" vertex="1" parent="5TA8-3koPhKkjeQelwCI-16">
          <mxGeometry y="26" width="240" height="26" as="geometry" />
        </mxCell>
        <mxCell id="5TA8-3koPhKkjeQelwCI-18" value="" style="line;strokeWidth=1;fillColor=none;align=left;verticalAlign=middle;spacingTop=-1;spacingLeft=3;spacingRight=3;rotatable=0;labelPosition=right;points=[];portConstraint=eastwest;strokeColor=inherit;" vertex="1" parent="5TA8-3koPhKkjeQelwCI-16">
          <mxGeometry y="52" width="240" height="8" as="geometry" />
        </mxCell>
        <mxCell id="5TA8-3koPhKkjeQelwCI-19" value="+ method(type): type" style="text;strokeColor=none;fillColor=none;align=left;verticalAlign=top;spacingLeft=4;spacingRight=4;overflow=hidden;rotatable=0;points=[[0,0.5],[1,0.5]];portConstraint=eastwest;whiteSpace=wrap;html=1;" vertex="1" parent="5TA8-3koPhKkjeQelwCI-16">
          <mxGeometry y="60" width="240" height="26" as="geometry" />
        </mxCell>
        <mxCell id="5TA8-3koPhKkjeQelwCI-30" value="+ item: attribute" style="text;strokeColor=none;fillColor=none;align=left;verticalAlign=top;spacingLeft=4;spacingRight=4;overflow=hidden;rotatable=0;points=[[0,0.5],[1,0.5]];portConstraint=eastwest;whiteSpace=wrap;html=1;" vertex="1" parent="5TA8-3koPhKkjeQelwCI-16">
          <mxGeometry y="86" width="240" height="26" as="geometry" />
        </mxCell>
        <mxCell id="5TA8-3koPhKkjeQelwCI-27" value="+ item: attribute" style="text;strokeColor=none;fillColor=none;align=left;verticalAlign=top;spacingLeft=4;spacingRight=4;overflow=hidden;rotatable=0;points=[[0,0.5],[1,0.5]];portConstraint=eastwest;whiteSpace=wrap;html=1;" vertex="1" parent="5TA8-3koPhKkjeQelwCI-16">
          <mxGeometry y="112" width="240" height="26" as="geometry" />
        </mxCell>
        <mxCell id="5TA8-3koPhKkjeQelwCI-39" value="&lt;h1&gt;STORAGE MANAGMENT&lt;/h1&gt;" style="text;html=1;strokeColor=none;fillColor=none;spacing=5;spacingTop=-20;whiteSpace=wrap;overflow=hidden;rounded=0;" vertex="1" parent="1">
          <mxGeometry x="772" y="2690" width="190" height="120" as="geometry" />
        </mxCell>
        <mxCell id="YUj-WmIUT_tyeGoXXUWg-152" value="Classname" style="swimlane;fontStyle=1;align=center;verticalAlign=top;childLayout=stackLayout;horizontal=1;startSize=26;horizontalStack=0;resizeParent=1;resizeParentMax=0;resizeLast=0;collapsible=1;marginBottom=0;whiteSpace=wrap;html=1;" vertex="1" parent="1">
          <mxGeometry x="1600" y="1370" width="160" height="86" as="geometry" />
        </mxCell>
        <mxCell id="YUj-WmIUT_tyeGoXXUWg-153" value="+ field: type" style="text;strokeColor=none;fillColor=none;align=left;verticalAlign=top;spacingLeft=4;spacingRight=4;overflow=hidden;rotatable=0;points=[[0,0.5],[1,0.5]];portConstraint=eastwest;whiteSpace=wrap;html=1;" vertex="1" parent="YUj-WmIUT_tyeGoXXUWg-152">
          <mxGeometry y="26" width="160" height="26" as="geometry" />
        </mxCell>
        <mxCell id="YUj-WmIUT_tyeGoXXUWg-154" value="" style="line;strokeWidth=1;fillColor=none;align=left;verticalAlign=middle;spacingTop=-1;spacingLeft=3;spacingRight=3;rotatable=0;labelPosition=right;points=[];portConstraint=eastwest;strokeColor=inherit;" vertex="1" parent="YUj-WmIUT_tyeGoXXUWg-152">
          <mxGeometry y="52" width="160" height="8" as="geometry" />
        </mxCell>
        <mxCell id="YUj-WmIUT_tyeGoXXUWg-155" value="+ method(type): type" style="text;strokeColor=none;fillColor=none;align=left;verticalAlign=top;spacingLeft=4;spacingRight=4;overflow=hidden;rotatable=0;points=[[0,0.5],[1,0.5]];portConstraint=eastwest;whiteSpace=wrap;html=1;" vertex="1" parent="YUj-WmIUT_tyeGoXXUWg-152">
          <mxGeometry y="60" width="160" height="26" as="geometry" />
        </mxCell>
        <mxCell id="YUj-WmIUT_tyeGoXXUWg-156" value="Classname" style="swimlane;fontStyle=1;align=center;verticalAlign=top;childLayout=stackLayout;horizontal=1;startSize=26;horizontalStack=0;resizeParent=1;resizeParentMax=0;resizeLast=0;collapsible=1;marginBottom=0;whiteSpace=wrap;html=1;" vertex="1" parent="1">
          <mxGeometry x="1605" y="1296" width="160" height="60" as="geometry" />
        </mxCell>
        <mxCell id="YUj-WmIUT_tyeGoXXUWg-158" value="" style="line;strokeWidth=1;fillColor=none;align=left;verticalAlign=middle;spacingTop=-1;spacingLeft=3;spacingRight=3;rotatable=0;labelPosition=right;points=[];portConstraint=eastwest;strokeColor=inherit;" vertex="1" parent="YUj-WmIUT_tyeGoXXUWg-156">
          <mxGeometry y="26" width="160" height="8" as="geometry" />
        </mxCell>
        <mxCell id="YUj-WmIUT_tyeGoXXUWg-159" value="+ method(type): type" style="text;strokeColor=none;fillColor=none;align=left;verticalAlign=top;spacingLeft=4;spacingRight=4;overflow=hidden;rotatable=0;points=[[0,0.5],[1,0.5]];portConstraint=eastwest;whiteSpace=wrap;html=1;" vertex="1" parent="YUj-WmIUT_tyeGoXXUWg-156">
          <mxGeometry y="34" width="160" height="26" as="geometry" />
        </mxCell>
        <mxCell id="YUj-WmIUT_tyeGoXXUWg-160" value="Classname" style="swimlane;fontStyle=1;align=center;verticalAlign=top;childLayout=stackLayout;horizontal=1;startSize=26;horizontalStack=0;resizeParent=1;resizeParentMax=0;resizeLast=0;collapsible=1;marginBottom=0;whiteSpace=wrap;html=1;" vertex="1" parent="1">
          <mxGeometry x="1892" y="2621" width="160" height="82" as="geometry" />
        </mxCell>
        <mxCell id="YUj-WmIUT_tyeGoXXUWg-161" value="+ field: type" style="text;strokeColor=none;fillColor=none;align=left;verticalAlign=top;spacingLeft=4;spacingRight=4;overflow=hidden;rotatable=0;points=[[0,0.5],[1,0.5]];portConstraint=eastwest;whiteSpace=wrap;html=1;" vertex="1" parent="YUj-WmIUT_tyeGoXXUWg-160">
          <mxGeometry y="26" width="160" height="22" as="geometry" />
        </mxCell>
        <mxCell id="YUj-WmIUT_tyeGoXXUWg-162" value="" style="line;strokeWidth=1;fillColor=none;align=left;verticalAlign=middle;spacingTop=-1;spacingLeft=3;spacingRight=3;rotatable=0;labelPosition=right;points=[];portConstraint=eastwest;strokeColor=inherit;" vertex="1" parent="YUj-WmIUT_tyeGoXXUWg-160">
          <mxGeometry y="48" width="160" height="8" as="geometry" />
        </mxCell>
        <mxCell id="YUj-WmIUT_tyeGoXXUWg-163" value="+ method(type): type" style="text;strokeColor=none;fillColor=none;align=left;verticalAlign=top;spacingLeft=4;spacingRight=4;overflow=hidden;rotatable=0;points=[[0,0.5],[1,0.5]];portConstraint=eastwest;whiteSpace=wrap;html=1;" vertex="1" parent="YUj-WmIUT_tyeGoXXUWg-160">
          <mxGeometry y="56" width="160" height="26" as="geometry" />
        </mxCell>
        <mxCell id="YUj-WmIUT_tyeGoXXUWg-168" value="Classname" style="swimlane;fontStyle=1;align=center;verticalAlign=top;childLayout=stackLayout;horizontal=1;startSize=26;horizontalStack=0;resizeParent=1;resizeParentMax=0;resizeLast=0;collapsible=1;marginBottom=0;whiteSpace=wrap;html=1;" vertex="1" parent="1">
          <mxGeometry x="1605" y="1556" width="160" height="86" as="geometry" />
        </mxCell>
        <mxCell id="YUj-WmIUT_tyeGoXXUWg-169" value="+ field: type" style="text;strokeColor=none;fillColor=none;align=left;verticalAlign=top;spacingLeft=4;spacingRight=4;overflow=hidden;rotatable=0;points=[[0,0.5],[1,0.5]];portConstraint=eastwest;whiteSpace=wrap;html=1;" vertex="1" parent="YUj-WmIUT_tyeGoXXUWg-168">
          <mxGeometry y="26" width="160" height="26" as="geometry" />
        </mxCell>
        <mxCell id="YUj-WmIUT_tyeGoXXUWg-170" value="" style="line;strokeWidth=1;fillColor=none;align=left;verticalAlign=middle;spacingTop=-1;spacingLeft=3;spacingRight=3;rotatable=0;labelPosition=right;points=[];portConstraint=eastwest;strokeColor=inherit;" vertex="1" parent="YUj-WmIUT_tyeGoXXUWg-168">
          <mxGeometry y="52" width="160" height="8" as="geometry" />
        </mxCell>
        <mxCell id="YUj-WmIUT_tyeGoXXUWg-171" value="+ method(type): type" style="text;strokeColor=none;fillColor=none;align=left;verticalAlign=top;spacingLeft=4;spacingRight=4;overflow=hidden;rotatable=0;points=[[0,0.5],[1,0.5]];portConstraint=eastwest;whiteSpace=wrap;html=1;" vertex="1" parent="YUj-WmIUT_tyeGoXXUWg-168">
          <mxGeometry y="60" width="160" height="26" as="geometry" />
        </mxCell>
        <mxCell id="YUj-WmIUT_tyeGoXXUWg-184" value="" style="group" vertex="1" connectable="0" parent="1">
          <mxGeometry x="2130" y="54" width="780" height="1500" as="geometry" />
        </mxCell>
        <mxCell id="5TA8-3koPhKkjeQelwCI-5" value="Level-2" style="rounded=0;whiteSpace=wrap;html=1;" vertex="1" parent="YUj-WmIUT_tyeGoXXUWg-184">
          <mxGeometry x="330" y="-24" width="120" height="60" as="geometry" />
        </mxCell>
        <mxCell id="YUj-WmIUT_tyeGoXXUWg-181" value="" style="group" vertex="1" connectable="0" parent="YUj-WmIUT_tyeGoXXUWg-184">
          <mxGeometry x="10" y="120" width="770" height="1380" as="geometry" />
        </mxCell>
        <mxCell id="YUj-WmIUT_tyeGoXXUWg-179" value="&lt;p style=&quot;text-align: justify;&quot;&gt;&lt;br&gt;&lt;/p&gt;" style="rounded=0;whiteSpace=wrap;html=1;fillColor=#f8cecc;strokeColor=#b85450;align=left;" vertex="1" parent="YUj-WmIUT_tyeGoXXUWg-181">
          <mxGeometry width="770" height="1380" as="geometry" />
        </mxCell>
        <mxCell id="YUj-WmIUT_tyeGoXXUWg-9" value="Annotation" style="swimlane;fontStyle=1;childLayout=stackLayout;horizontal=1;startSize=26;horizontalStack=0;resizeParent=1;resizeParentMax=0;resizeLast=0;collapsible=1;marginBottom=0;whiteSpace=wrap;html=1;" vertex="1" parent="YUj-WmIUT_tyeGoXXUWg-181">
          <mxGeometry x="10" y="328.20512820512823" width="240" height="251.36752136752136" as="geometry">
            <mxRectangle x="227.27272727272728" y="378" width="431.81818181818187" height="30" as="alternateBounds" />
          </mxGeometry>
        </mxCell>
        <mxCell id="YUj-WmIUT_tyeGoXXUWg-5" value="&lt;p style=&quot;margin:0px;margin-top:4px;text-align:center;&quot;&gt;&lt;b&gt;MASK&lt;/b&gt;&lt;/p&gt;&lt;hr size=&quot;1&quot;&gt;&lt;p style=&quot;margin:0px;margin-left:4px;&quot;&gt;&amp;nbsp;برای تولید و خواندن پولیگان&lt;/p&gt;" style="verticalAlign=top;align=left;overflow=fill;fontSize=12;fontFamily=Helvetica;html=1;whiteSpace=wrap;" vertex="1" parent="YUj-WmIUT_tyeGoXXUWg-9">
          <mxGeometry y="26" width="240" height="98.46153846153847" as="geometry" />
        </mxCell>
        <mxCell id="YUj-WmIUT_tyeGoXXUWg-14" value="+ item: attribute" style="text;strokeColor=none;fillColor=none;align=left;verticalAlign=top;spacingLeft=4;spacingRight=4;overflow=hidden;rotatable=0;points=[[0,0.5],[1,0.5]];portConstraint=eastwest;whiteSpace=wrap;html=1;" vertex="1" parent="YUj-WmIUT_tyeGoXXUWg-9">
          <mxGeometry y="124.46153846153847" width="240" height="28.444444444444446" as="geometry" />
        </mxCell>
        <mxCell id="YUj-WmIUT_tyeGoXXUWg-13" value="&lt;p style=&quot;margin:0px;margin-top:4px;text-align:center;&quot;&gt;&lt;b&gt;BBOX&lt;/b&gt;&lt;/p&gt;&lt;hr size=&quot;1&quot;&gt;&lt;p style=&quot;margin:0px;margin-left:4px;&quot;&gt;برای تولید و خواندن باندباکس&lt;/p&gt;&lt;hr size=&quot;1&quot;&gt;&lt;p style=&quot;margin:0px;margin-left:4px;&quot;&gt;+ method(): Type&lt;/p&gt;" style="verticalAlign=top;align=left;overflow=fill;fontSize=12;fontFamily=Helvetica;html=1;whiteSpace=wrap;" vertex="1" parent="YUj-WmIUT_tyeGoXXUWg-9">
          <mxGeometry y="152.9059829059829" width="240" height="98.46153846153847" as="geometry" />
        </mxCell>
        <mxCell id="YUj-WmIUT_tyeGoXXUWg-22" value="binary_model_funcs" style="swimlane;fontStyle=1;align=center;verticalAlign=top;childLayout=stackLayout;horizontal=1;startSize=26;horizontalStack=0;resizeParent=1;resizeParentMax=0;resizeLast=0;collapsible=1;marginBottom=0;whiteSpace=wrap;html=1;" vertex="1" parent="YUj-WmIUT_tyeGoXXUWg-181">
          <mxGeometry x="260.00272727272727" y="503.2478632478633" width="240" height="205.4188034188034" as="geometry">
            <mxRectangle x="227.27272727272728" y="471" width="431.81818181818187" height="30" as="alternateBounds" />
          </mxGeometry>
        </mxCell>
        <mxCell id="YUj-WmIUT_tyeGoXXUWg-23" value="ذخیره و لود کردن مدل های باینری در دیتایس&lt;br&gt;نمایش مدل های باینری با فیلتر&lt;br&gt;" style="text;strokeColor=none;fillColor=none;align=left;verticalAlign=top;spacingLeft=4;spacingRight=4;overflow=hidden;rotatable=0;points=[[0,0.5],[1,0.5]];portConstraint=eastwest;whiteSpace=wrap;html=1;" vertex="1" parent="YUj-WmIUT_tyeGoXXUWg-22">
          <mxGeometry y="26" width="240" height="48.13675213675214" as="geometry" />
        </mxCell>
        <mxCell id="YUj-WmIUT_tyeGoXXUWg-24" value="" style="line;strokeWidth=1;fillColor=none;align=left;verticalAlign=middle;spacingTop=-1;spacingLeft=3;spacingRight=3;rotatable=0;labelPosition=right;points=[];portConstraint=eastwest;strokeColor=inherit;" vertex="1" parent="YUj-WmIUT_tyeGoXXUWg-22">
          <mxGeometry y="74.13675213675214" width="240" height="8.752136752136753" as="geometry" />
        </mxCell>
        <mxCell id="YUj-WmIUT_tyeGoXXUWg-27" value="+ item: attribute" style="text;strokeColor=none;fillColor=none;align=left;verticalAlign=top;spacingLeft=4;spacingRight=4;overflow=hidden;rotatable=0;points=[[0,0.5],[1,0.5]];portConstraint=eastwest;whiteSpace=wrap;html=1;" vertex="1" parent="YUj-WmIUT_tyeGoXXUWg-22">
          <mxGeometry y="82.88888888888889" width="240" height="24.06837606837607" as="geometry" />
        </mxCell>
        <mxCell id="YUj-WmIUT_tyeGoXXUWg-28" value="&lt;p style=&quot;margin:0px;margin-top:4px;text-align:center;&quot;&gt;&lt;/p&gt;&lt;p style=&quot;text-align: center; margin: 0px 0px 0px 4px;&quot;&gt;&lt;b&gt;Class Binary_model_train_worker&lt;/b&gt;&lt;/p&gt;&lt;hr size=&quot;1&quot;&gt;&lt;p style=&quot;margin:0px;margin-left:4px;&quot;&gt;در هنکام ترین کردن مدل باینری سیگنال اتمام را میدهد&lt;/p&gt;&lt;p style=&quot;margin:0px;margin-left:4px;&quot;&gt;شروع اموزش مدل و اماده سازی دیتاست&lt;/p&gt;" style="verticalAlign=top;align=left;overflow=fill;fontSize=12;fontFamily=Helvetica;html=1;whiteSpace=wrap;" vertex="1" parent="YUj-WmIUT_tyeGoXXUWg-22">
          <mxGeometry y="106.95726495726495" width="240" height="98.46153846153847" as="geometry" />
        </mxCell>
        <mxCell id="YUj-WmIUT_tyeGoXXUWg-43" value="defect_management_funcs" style="swimlane;fontStyle=1;align=center;verticalAlign=top;childLayout=stackLayout;horizontal=1;startSize=26;horizontalStack=0;resizeParent=1;resizeParentMax=0;resizeLast=0;collapsible=1;marginBottom=0;whiteSpace=wrap;html=1;" vertex="1" parent="YUj-WmIUT_tyeGoXXUWg-181">
          <mxGeometry x="260.00272727272727" y="737.3675213675215" width="240" height="176.97435897435898" as="geometry">
            <mxRectangle x="227.27272727272728" y="728" width="431.81818181818187" height="30" as="alternateBounds" />
          </mxGeometry>
        </mxCell>
        <mxCell id="YUj-WmIUT_tyeGoXXUWg-44" value="لود کردن عیوب از دیتابیس&lt;br&gt;حذف و ویرایش عیب از دیتابیس&lt;br&gt;لود کردن جزییات عیب در نرم افزار&lt;br&gt;نمایش دسته عیوب&lt;br&gt;تولید رنگ تصادفی برای عیب&lt;br&gt;نمایش توضیحات عیب" style="text;strokeColor=none;fillColor=none;align=left;verticalAlign=top;spacingLeft=4;spacingRight=4;overflow=hidden;rotatable=0;points=[[0,0.5],[1,0.5]];portConstraint=eastwest;whiteSpace=wrap;html=1;" vertex="1" parent="YUj-WmIUT_tyeGoXXUWg-43">
          <mxGeometry y="26" width="240" height="113.77777777777779" as="geometry" />
        </mxCell>
        <mxCell id="YUj-WmIUT_tyeGoXXUWg-45" value="" style="line;strokeWidth=1;fillColor=none;align=left;verticalAlign=middle;spacingTop=-1;spacingLeft=3;spacingRight=3;rotatable=0;labelPosition=right;points=[];portConstraint=eastwest;strokeColor=inherit;" vertex="1" parent="YUj-WmIUT_tyeGoXXUWg-43">
          <mxGeometry y="139.77777777777777" width="240" height="8.752136752136753" as="geometry" />
        </mxCell>
        <mxCell id="YUj-WmIUT_tyeGoXXUWg-48" value="+ item: attribute" style="text;strokeColor=none;fillColor=none;align=left;verticalAlign=top;spacingLeft=4;spacingRight=4;overflow=hidden;rotatable=0;points=[[0,0.5],[1,0.5]];portConstraint=eastwest;whiteSpace=wrap;html=1;" vertex="1" parent="YUj-WmIUT_tyeGoXXUWg-43">
          <mxGeometry y="148.52991452991452" width="240" height="28.444444444444446" as="geometry" />
        </mxCell>
        <mxCell id="YUj-WmIUT_tyeGoXXUWg-54" value="classification_model_funcs" style="swimlane;fontStyle=1;align=center;verticalAlign=top;childLayout=stackLayout;horizontal=1;startSize=26;horizontalStack=0;resizeParent=1;resizeParentMax=0;resizeLast=0;collapsible=1;marginBottom=0;whiteSpace=wrap;html=1;" vertex="1" parent="YUj-WmIUT_tyeGoXXUWg-181">
          <mxGeometry x="510.00272727272727" y="728.6153846153846" width="240" height="117.8974358974359" as="geometry">
            <mxRectangle x="227.27272727272728" y="688" width="431.81818181818187" height="30" as="alternateBounds" />
          </mxGeometry>
        </mxCell>
        <mxCell id="YUj-WmIUT_tyeGoXXUWg-55" value="ذخیره و لود کردن مدل های دسته بندی در دیتایس&lt;br&gt;نمایش مدل های دسته بندی با فیلتر" style="text;strokeColor=none;fillColor=none;align=left;verticalAlign=top;spacingLeft=4;spacingRight=4;overflow=hidden;rotatable=0;points=[[0,0.5],[1,0.5]];portConstraint=eastwest;whiteSpace=wrap;html=1;" vertex="1" parent="YUj-WmIUT_tyeGoXXUWg-54">
          <mxGeometry y="26" width="240" height="59.07692307692308" as="geometry" />
        </mxCell>
        <mxCell id="YUj-WmIUT_tyeGoXXUWg-56" value="" style="line;strokeWidth=1;fillColor=none;align=left;verticalAlign=middle;spacingTop=-1;spacingLeft=3;spacingRight=3;rotatable=0;labelPosition=right;points=[];portConstraint=eastwest;strokeColor=inherit;" vertex="1" parent="YUj-WmIUT_tyeGoXXUWg-54">
          <mxGeometry y="85.07692307692308" width="240" height="8.752136752136753" as="geometry" />
        </mxCell>
        <mxCell id="YUj-WmIUT_tyeGoXXUWg-57" value="+ item: attribute" style="text;strokeColor=none;fillColor=none;align=left;verticalAlign=top;spacingLeft=4;spacingRight=4;overflow=hidden;rotatable=0;points=[[0,0.5],[1,0.5]];portConstraint=eastwest;whiteSpace=wrap;html=1;" vertex="1" parent="YUj-WmIUT_tyeGoXXUWg-54">
          <mxGeometry y="93.82905982905983" width="240" height="24.06837606837607" as="geometry" />
        </mxCell>
        <mxCell id="YUj-WmIUT_tyeGoXXUWg-66" value="data_grabber" style="swimlane;fontStyle=1;align=center;verticalAlign=top;childLayout=stackLayout;horizontal=1;startSize=26;horizontalStack=0;resizeParent=1;resizeParentMax=0;resizeLast=0;collapsible=1;marginBottom=0;whiteSpace=wrap;html=1;" vertex="1" parent="YUj-WmIUT_tyeGoXXUWg-181">
          <mxGeometry x="510.00272727272727" y="855.5213675213676" width="240" height="190.10256410256412" as="geometry">
            <mxRectangle x="227.27272727272728" y="768" width="431.81818181818187" height="30" as="alternateBounds" />
          </mxGeometry>
        </mxCell>
        <mxCell id="YUj-WmIUT_tyeGoXXUWg-72" value="&lt;p style=&quot;margin:0px;margin-top:4px;text-align:center;&quot;&gt;&lt;b&gt;Class&amp;nbsp;sheetOverView&lt;/b&gt;&lt;/p&gt;&lt;hr size=&quot;1&quot;&gt;&lt;p style=&quot;margin:0px;margin-left:4px;&quot;&gt;&lt;/p&gt;&lt;p style=&quot;margin:0px;margin-left:4px;&quot;&gt;درست کردن و نمایش شمای تکنیکال ورق برای هر دوسمت&lt;/p&gt;&lt;p style=&quot;margin:0px;margin-left:4px;&quot;&gt;دابل کلیک کردن و نمایش فول اسکرین تصویر&lt;/p&gt;" style="verticalAlign=top;align=left;overflow=fill;fontSize=12;fontFamily=Helvetica;html=1;whiteSpace=wrap;" vertex="1" parent="YUj-WmIUT_tyeGoXXUWg-66">
          <mxGeometry y="26" width="240" height="98.46153846153847" as="geometry" />
        </mxCell>
        <mxCell id="YUj-WmIUT_tyeGoXXUWg-67" value="+ field: type" style="text;strokeColor=none;fillColor=none;align=left;verticalAlign=top;spacingLeft=4;spacingRight=4;overflow=hidden;rotatable=0;points=[[0,0.5],[1,0.5]];portConstraint=eastwest;whiteSpace=wrap;html=1;" vertex="1" parent="YUj-WmIUT_tyeGoXXUWg-66">
          <mxGeometry y="124.46153846153847" width="240" height="28.444444444444446" as="geometry" />
        </mxCell>
        <mxCell id="YUj-WmIUT_tyeGoXXUWg-68" value="" style="line;strokeWidth=1;fillColor=none;align=left;verticalAlign=middle;spacingTop=-1;spacingLeft=3;spacingRight=3;rotatable=0;labelPosition=right;points=[];portConstraint=eastwest;strokeColor=inherit;" vertex="1" parent="YUj-WmIUT_tyeGoXXUWg-66">
          <mxGeometry y="152.9059829059829" width="240" height="8.752136752136753" as="geometry" />
        </mxCell>
        <mxCell id="YUj-WmIUT_tyeGoXXUWg-70" value="+ item: attribute" style="text;strokeColor=none;fillColor=none;align=left;verticalAlign=top;spacingLeft=4;spacingRight=4;overflow=hidden;rotatable=0;points=[[0,0.5],[1,0.5]];portConstraint=eastwest;whiteSpace=wrap;html=1;" vertex="1" parent="YUj-WmIUT_tyeGoXXUWg-66">
          <mxGeometry y="161.65811965811966" width="240" height="28.444444444444446" as="geometry" />
        </mxCell>
        <mxCell id="YUj-WmIUT_tyeGoXXUWg-74" value="dataset" style="swimlane;fontStyle=1;align=center;verticalAlign=top;childLayout=stackLayout;horizontal=1;startSize=26;horizontalStack=0;resizeParent=1;resizeParentMax=0;resizeLast=0;collapsible=1;marginBottom=0;whiteSpace=wrap;html=1;" vertex="1" parent="YUj-WmIUT_tyeGoXXUWg-181">
          <mxGeometry x="510.00272727272727" y="128" width="240" height="365.14529914529925" as="geometry">
            <mxRectangle x="300.00272727272727" y="230" width="431.81818181818187" height="30" as="alternateBounds" />
          </mxGeometry>
        </mxCell>
        <mxCell id="YUj-WmIUT_tyeGoXXUWg-80" value="&lt;p style=&quot;margin:0px;margin-top:4px;text-align:center;&quot;&gt;&lt;/p&gt;&lt;p style=&quot;text-align: center; margin: 0px 0px 0px 4px;&quot;&gt;&lt;b&gt;Dataset&lt;/b&gt;&lt;/p&gt;&lt;p style=&quot;margin:0px;margin-left:4px;&quot;&gt;&lt;br&gt;&lt;/p&gt;&lt;hr size=&quot;1&quot;&gt;&lt;p style=&quot;margin:0px;margin-left:4px;&quot;&gt;درست کردن ادرس و وفولدر&lt;/p&gt;&lt;p style=&quot;margin:0px;margin-left:4px;&quot;&gt;ذخیره سازی جیسون های تصاویر&lt;/p&gt;&lt;p style=&quot;margin:0px;margin-left:4px;&quot;&gt;لود کردن جیسون عیوب&lt;/p&gt;&lt;p style=&quot;margin:0px;margin-left:4px;&quot;&gt;چک کردن تصاویر ذخیره شده&lt;/p&gt;&lt;p style=&quot;margin:0px;margin-left:4px;&quot;&gt;حذف تصاویر صحیح یا غلط&lt;/p&gt;&lt;p style=&quot;margin:0px;margin-left:4px;&quot;&gt;ذخیره کردن تصاویر اسپلیت شده&lt;/p&gt;&lt;p style=&quot;margin:0px;margin-left:4px;&quot;&gt;چک کردن دیتاست پایپ لاین&lt;/p&gt;&lt;p style=&quot;margin:0px;margin-left:4px;&quot;&gt;&lt;br&gt;&lt;/p&gt;" style="verticalAlign=top;align=left;overflow=fill;fontSize=12;fontFamily=Helvetica;html=1;whiteSpace=wrap;" vertex="1" parent="YUj-WmIUT_tyeGoXXUWg-74">
          <mxGeometry y="26" width="240" height="201.29914529914532" as="geometry" />
        </mxCell>
        <mxCell id="YUj-WmIUT_tyeGoXXUWg-75" value="+ field: type" style="text;strokeColor=none;fillColor=none;align=left;verticalAlign=top;spacingLeft=4;spacingRight=4;overflow=hidden;rotatable=0;points=[[0,0.5],[1,0.5]];portConstraint=eastwest;whiteSpace=wrap;html=1;" vertex="1" parent="YUj-WmIUT_tyeGoXXUWg-74">
          <mxGeometry y="227.29914529914532" width="240" height="28.444444444444446" as="geometry" />
        </mxCell>
        <mxCell id="YUj-WmIUT_tyeGoXXUWg-76" value="" style="line;strokeWidth=1;fillColor=none;align=left;verticalAlign=middle;spacingTop=-1;spacingLeft=3;spacingRight=3;rotatable=0;labelPosition=right;points=[];portConstraint=eastwest;strokeColor=inherit;" vertex="1" parent="YUj-WmIUT_tyeGoXXUWg-74">
          <mxGeometry y="255.74358974358978" width="240" height="8.752136752136753" as="geometry" />
        </mxCell>
        <mxCell id="YUj-WmIUT_tyeGoXXUWg-77" value="نمایش دیتاست ها در نرم افزار&lt;br&gt;انتخاب یک دیتاست و نمایش ان" style="text;strokeColor=none;fillColor=none;align=left;verticalAlign=top;spacingLeft=4;spacingRight=4;overflow=hidden;rotatable=0;points=[[0,0.5],[1,0.5]];portConstraint=eastwest;whiteSpace=wrap;html=1;" vertex="1" parent="YUj-WmIUT_tyeGoXXUWg-74">
          <mxGeometry y="264.49572649572656" width="240" height="72.20512820512822" as="geometry" />
        </mxCell>
        <mxCell id="YUj-WmIUT_tyeGoXXUWg-78" value="+ item: attribute" style="text;strokeColor=none;fillColor=none;align=left;verticalAlign=top;spacingLeft=4;spacingRight=4;overflow=hidden;rotatable=0;points=[[0,0.5],[1,0.5]];portConstraint=eastwest;whiteSpace=wrap;html=1;" vertex="1" parent="YUj-WmIUT_tyeGoXXUWg-74">
          <mxGeometry y="336.7008547008548" width="240" height="28.444444444444446" as="geometry" />
        </mxCell>
        <mxCell id="YUj-WmIUT_tyeGoXXUWg-105" value="Label" style="swimlane;fontStyle=1;align=center;verticalAlign=top;childLayout=stackLayout;horizontal=1;startSize=26;horizontalStack=0;resizeParent=1;resizeParentMax=0;resizeLast=0;collapsible=1;marginBottom=0;whiteSpace=wrap;html=1;" vertex="1" parent="YUj-WmIUT_tyeGoXXUWg-181">
          <mxGeometry x="260.00272727272727" y="192.54700854700857" width="240" height="277.62393162393164" as="geometry">
            <mxRectangle x="227.27272727272728" y="323" width="431.81818181818187" height="30" as="alternateBounds" />
          </mxGeometry>
        </mxCell>
        <mxCell id="YUj-WmIUT_tyeGoXXUWg-115" value="&lt;p style=&quot;margin:0px;margin-top:4px;text-align:center;&quot;&gt;&lt;b&gt;Class maskLbl&lt;/b&gt;&lt;/p&gt;&lt;hr size=&quot;1&quot;&gt;&lt;p style=&quot;margin:0px;margin-left:4px;&quot;&gt;&lt;/p&gt;&lt;p style=&quot;margin:0px;margin-left:4px;&quot;&gt;مدیریت و نمایش نقاط بر روی تصویر برای لیبل زدن و در نهایت بستن شکل لیبل&lt;/p&gt;&lt;p style=&quot;margin:0px;margin-left:4px;&quot;&gt;با کلیک چپ نقطه اضافه میشود و با راست حذف&lt;/p&gt;" style="verticalAlign=top;align=left;overflow=fill;fontSize=12;fontFamily=Helvetica;html=1;whiteSpace=wrap;" vertex="1" parent="YUj-WmIUT_tyeGoXXUWg-105">
          <mxGeometry y="26" width="240" height="98.46153846153847" as="geometry" />
        </mxCell>
        <mxCell id="YUj-WmIUT_tyeGoXXUWg-106" value="+ field: type" style="text;strokeColor=none;fillColor=none;align=left;verticalAlign=top;spacingLeft=4;spacingRight=4;overflow=hidden;rotatable=0;points=[[0,0.5],[1,0.5]];portConstraint=eastwest;whiteSpace=wrap;html=1;" vertex="1" parent="YUj-WmIUT_tyeGoXXUWg-105">
          <mxGeometry y="124.46153846153847" width="240" height="28.444444444444446" as="geometry" />
        </mxCell>
        <mxCell id="YUj-WmIUT_tyeGoXXUWg-107" value="" style="line;strokeWidth=1;fillColor=none;align=left;verticalAlign=middle;spacingTop=-1;spacingLeft=3;spacingRight=3;rotatable=0;labelPosition=right;points=[];portConstraint=eastwest;strokeColor=inherit;" vertex="1" parent="YUj-WmIUT_tyeGoXXUWg-105">
          <mxGeometry y="152.9059829059829" width="240" height="8.752136752136753" as="geometry" />
        </mxCell>
        <mxCell id="YUj-WmIUT_tyeGoXXUWg-114" value="&lt;p style=&quot;margin:0px;margin-top:4px;text-align:center;&quot;&gt;&lt;b&gt;Class bboxLbl&lt;/b&gt;&lt;/p&gt;&amp;nbsp;&lt;hr size=&quot;1&quot;&gt;&lt;p style=&quot;margin:0px;margin-left:4px;&quot;&gt;&lt;/p&gt;&lt;p style=&quot;margin:0px;margin-left:4px;&quot;&gt;برای لیبل زدن به صورت مربعی میباشد&lt;/p&gt;" style="verticalAlign=top;align=left;overflow=fill;fontSize=12;fontFamily=Helvetica;html=1;whiteSpace=wrap;" vertex="1" parent="YUj-WmIUT_tyeGoXXUWg-105">
          <mxGeometry y="161.65811965811966" width="240" height="87.52136752136752" as="geometry" />
        </mxCell>
        <mxCell id="YUj-WmIUT_tyeGoXXUWg-110" value="+ item: attribute" style="text;strokeColor=none;fillColor=none;align=left;verticalAlign=top;spacingLeft=4;spacingRight=4;overflow=hidden;rotatable=0;points=[[0,0.5],[1,0.5]];portConstraint=eastwest;whiteSpace=wrap;html=1;" vertex="1" parent="YUj-WmIUT_tyeGoXXUWg-105">
          <mxGeometry y="249.17948717948718" width="240" height="28.444444444444446" as="geometry" />
        </mxCell>
        <mxCell id="YUj-WmIUT_tyeGoXXUWg-116" value="localization_model_funcs" style="swimlane;fontStyle=1;align=center;verticalAlign=top;childLayout=stackLayout;horizontal=1;startSize=26;horizontalStack=0;resizeParent=1;resizeParentMax=0;resizeLast=0;collapsible=1;marginBottom=0;whiteSpace=wrap;html=1;" vertex="1" parent="YUj-WmIUT_tyeGoXXUWg-181">
          <mxGeometry x="260.00272727272727" y="927.7264957264958" width="240" height="205.4188034188034" as="geometry">
            <mxRectangle x="227.27272727272728" y="648" width="431.81818181818187" height="30" as="alternateBounds" />
          </mxGeometry>
        </mxCell>
        <mxCell id="YUj-WmIUT_tyeGoXXUWg-117" value="ذخیره و لود کردن مدل های باینری در دیتایس&lt;br&gt;نمایش مدل های باینری با فیلتر&lt;br&gt;" style="text;strokeColor=none;fillColor=none;align=left;verticalAlign=top;spacingLeft=4;spacingRight=4;overflow=hidden;rotatable=0;points=[[0,0.5],[1,0.5]];portConstraint=eastwest;whiteSpace=wrap;html=1;" vertex="1" parent="YUj-WmIUT_tyeGoXXUWg-116">
          <mxGeometry y="26" width="240" height="48.13675213675214" as="geometry" />
        </mxCell>
        <mxCell id="YUj-WmIUT_tyeGoXXUWg-118" value="" style="line;strokeWidth=1;fillColor=none;align=left;verticalAlign=middle;spacingTop=-1;spacingLeft=3;spacingRight=3;rotatable=0;labelPosition=right;points=[];portConstraint=eastwest;strokeColor=inherit;" vertex="1" parent="YUj-WmIUT_tyeGoXXUWg-116">
          <mxGeometry y="74.13675213675214" width="240" height="8.752136752136753" as="geometry" />
        </mxCell>
        <mxCell id="YUj-WmIUT_tyeGoXXUWg-119" value="+ item: attribute" style="text;strokeColor=none;fillColor=none;align=left;verticalAlign=top;spacingLeft=4;spacingRight=4;overflow=hidden;rotatable=0;points=[[0,0.5],[1,0.5]];portConstraint=eastwest;whiteSpace=wrap;html=1;" vertex="1" parent="YUj-WmIUT_tyeGoXXUWg-116">
          <mxGeometry y="82.88888888888889" width="240" height="24.06837606837607" as="geometry" />
        </mxCell>
        <mxCell id="YUj-WmIUT_tyeGoXXUWg-120" value="&lt;p style=&quot;margin:0px;margin-top:4px;text-align:center;&quot;&gt;&lt;/p&gt;&lt;p style=&quot;text-align: center; margin: 0px 0px 0px 4px;&quot;&gt;&lt;b&gt;Class&amp;nbsp;Localization_model_train_worker&lt;/b&gt;&lt;/p&gt;&lt;hr size=&quot;1&quot;&gt;&lt;p style=&quot;margin:0px;margin-left:4px;&quot;&gt;&amp;nbsp;هنکام ترین کردن مدل جایابی سیگنال اتمام را میدهد&lt;/p&gt;&lt;p style=&quot;margin:0px;margin-left:4px;&quot;&gt;شروع مرحله اموزش و اماده سازی دیتاست&lt;/p&gt;" style="verticalAlign=top;align=left;overflow=fill;fontSize=12;fontFamily=Helvetica;html=1;whiteSpace=wrap;" vertex="1" parent="YUj-WmIUT_tyeGoXXUWg-116">
          <mxGeometry y="106.95726495726495" width="240" height="98.46153846153847" as="geometry" />
        </mxCell>
        <mxCell id="YUj-WmIUT_tyeGoXXUWg-133" value="plc_managment" style="swimlane;fontStyle=1;align=center;verticalAlign=top;childLayout=stackLayout;horizontal=1;startSize=26;horizontalStack=0;resizeParent=1;resizeParentMax=0;resizeLast=0;collapsible=1;marginBottom=0;whiteSpace=wrap;html=1;" vertex="1" parent="YUj-WmIUT_tyeGoXXUWg-181">
          <mxGeometry x="10.002727272727299" y="14.222222222222223" width="240" height="161.4017094017094" as="geometry">
            <mxRectangle x="227.27272727272728" y="38" width="431.81818181818187" height="30" as="alternateBounds" />
          </mxGeometry>
        </mxCell>
        <mxCell id="YUj-WmIUT_tyeGoXXUWg-164" value="managment" style="swimlane;fontStyle=1;align=center;verticalAlign=top;childLayout=stackLayout;horizontal=1;startSize=26;horizontalStack=0;resizeParent=1;resizeParentMax=0;resizeLast=0;collapsible=1;marginBottom=0;whiteSpace=wrap;html=1;" vertex="1" parent="YUj-WmIUT_tyeGoXXUWg-133">
          <mxGeometry y="26" width="240" height="106.95726495726497" as="geometry" />
        </mxCell>
        <mxCell id="YUj-WmIUT_tyeGoXXUWg-165" value="اتصال به پی ال سی&lt;br&gt;نوشتن در حافظه و خواندن&lt;br&gt;ست کردن تعداد دوربین و \رژکتور فعال برای هر ورق" style="text;strokeColor=none;fillColor=none;align=left;verticalAlign=top;spacingLeft=4;spacingRight=4;overflow=hidden;rotatable=0;points=[[0,0.5],[1,0.5]];portConstraint=eastwest;whiteSpace=wrap;html=1;" vertex="1" parent="YUj-WmIUT_tyeGoXXUWg-164">
          <mxGeometry y="26" width="240" height="80.95726495726497" as="geometry" />
        </mxCell>
        <mxCell id="YUj-WmIUT_tyeGoXXUWg-138" value="+ item: attribute" style="text;strokeColor=none;fillColor=none;align=left;verticalAlign=top;spacingLeft=4;spacingRight=4;overflow=hidden;rotatable=0;points=[[0,0.5],[1,0.5]];portConstraint=eastwest;whiteSpace=wrap;html=1;" vertex="1" parent="YUj-WmIUT_tyeGoXXUWg-133">
          <mxGeometry y="132.95726495726495" width="240" height="28.444444444444446" as="geometry" />
        </mxCell>
        <mxCell id="YUj-WmIUT_tyeGoXXUWg-139" value="pipelines" style="swimlane;fontStyle=1;align=center;verticalAlign=top;childLayout=stackLayout;horizontal=1;startSize=26;horizontalStack=0;resizeParent=1;resizeParentMax=0;resizeLast=0;collapsible=1;marginBottom=0;whiteSpace=wrap;html=1;" vertex="1" parent="YUj-WmIUT_tyeGoXXUWg-181">
          <mxGeometry x="10.00272727272727" y="192.54700854700857" width="240" height="111.33333333333333" as="geometry">
            <mxRectangle x="170.00272727272727" y="183" width="431.81818181818187" height="30" as="alternateBounds" />
          </mxGeometry>
        </mxCell>
        <mxCell id="YUj-WmIUT_tyeGoXXUWg-140" value="لود کردن پایپلاین و جدول ها در صفحه پایپ لاین" style="text;strokeColor=none;fillColor=none;align=left;verticalAlign=top;spacingLeft=4;spacingRight=4;overflow=hidden;rotatable=0;points=[[0,0.5],[1,0.5]];portConstraint=eastwest;whiteSpace=wrap;html=1;" vertex="1" parent="YUj-WmIUT_tyeGoXXUWg-139">
          <mxGeometry y="26" width="240" height="48.13675213675214" as="geometry" />
        </mxCell>
        <mxCell id="YUj-WmIUT_tyeGoXXUWg-141" value="" style="line;strokeWidth=1;fillColor=none;align=left;verticalAlign=middle;spacingTop=-1;spacingLeft=3;spacingRight=3;rotatable=0;labelPosition=right;points=[];portConstraint=eastwest;strokeColor=inherit;" vertex="1" parent="YUj-WmIUT_tyeGoXXUWg-139">
          <mxGeometry y="74.13675213675214" width="240" height="8.752136752136753" as="geometry" />
        </mxCell>
        <mxCell id="YUj-WmIUT_tyeGoXXUWg-144" value="+ item: attribute" style="text;strokeColor=none;fillColor=none;align=left;verticalAlign=top;spacingLeft=4;spacingRight=4;overflow=hidden;rotatable=0;points=[[0,0.5],[1,0.5]];portConstraint=eastwest;whiteSpace=wrap;html=1;" vertex="1" parent="YUj-WmIUT_tyeGoXXUWg-139">
          <mxGeometry y="82.88888888888889" width="240" height="28.444444444444446" as="geometry" />
        </mxCell>
        <mxCell id="YUj-WmIUT_tyeGoXXUWg-145" value="pbt_tables" style="swimlane;fontStyle=1;align=center;verticalAlign=top;childLayout=stackLayout;horizontal=1;startSize=26;horizontalStack=0;resizeParent=1;resizeParentMax=0;resizeLast=0;collapsible=1;marginBottom=0;whiteSpace=wrap;html=1;" vertex="1" parent="YUj-WmIUT_tyeGoXXUWg-181">
          <mxGeometry x="510.00272727272727" y="14.222222222222223" width="240" height="91.64102564102564" as="geometry">
            <mxRectangle x="227.27272727272728" y="213" width="431.81818181818187" height="30" as="alternateBounds" />
          </mxGeometry>
        </mxCell>
        <mxCell id="YUj-WmIUT_tyeGoXXUWg-146" value="نمایش جدول های صفحه pbt بر روی نرم افزار" style="text;strokeColor=none;fillColor=none;align=left;verticalAlign=top;spacingLeft=4;spacingRight=4;overflow=hidden;rotatable=0;points=[[0,0.5],[1,0.5]];portConstraint=eastwest;whiteSpace=wrap;html=1;" vertex="1" parent="YUj-WmIUT_tyeGoXXUWg-145">
          <mxGeometry y="26" width="240" height="28.444444444444446" as="geometry" />
        </mxCell>
        <mxCell id="YUj-WmIUT_tyeGoXXUWg-147" value="" style="line;strokeWidth=1;fillColor=none;align=left;verticalAlign=middle;spacingTop=-1;spacingLeft=3;spacingRight=3;rotatable=0;labelPosition=right;points=[];portConstraint=eastwest;strokeColor=inherit;" vertex="1" parent="YUj-WmIUT_tyeGoXXUWg-145">
          <mxGeometry y="54.44444444444444" width="240" height="8.752136752136753" as="geometry" />
        </mxCell>
        <mxCell id="YUj-WmIUT_tyeGoXXUWg-149" value="+ item: attribute" style="text;strokeColor=none;fillColor=none;align=left;verticalAlign=top;spacingLeft=4;spacingRight=4;overflow=hidden;rotatable=0;points=[[0,0.5],[1,0.5]];portConstraint=eastwest;whiteSpace=wrap;html=1;" vertex="1" parent="YUj-WmIUT_tyeGoXXUWg-145">
          <mxGeometry y="63.19658119658119" width="240" height="28.444444444444446" as="geometry" />
        </mxCell>
        <mxCell id="YUj-WmIUT_tyeGoXXUWg-99" value="level2_connection" style="swimlane;fontStyle=1;align=center;verticalAlign=top;childLayout=stackLayout;horizontal=1;startSize=26;horizontalStack=0;resizeParent=1;resizeParentMax=0;resizeLast=0;collapsible=1;marginBottom=0;whiteSpace=wrap;html=1;" vertex="1" parent="YUj-WmIUT_tyeGoXXUWg-181">
          <mxGeometry x="260.00272727272716" y="14.222222222222223" width="240" height="148.52991452991455" as="geometry">
            <mxRectangle x="450.00272727272727" y="473" width="431.81818181818187" height="30" as="alternateBounds" />
          </mxGeometry>
        </mxCell>
        <mxCell id="YUj-WmIUT_tyeGoXXUWg-113" value="&lt;p style=&quot;margin:0px;margin-top:4px;text-align:center;&quot;&gt;&lt;b&gt;Class&amp;nbsp;connection_level2&lt;/b&gt;&lt;/p&gt;&lt;hr size=&quot;1&quot;&gt;&lt;p style=&quot;margin:0px;margin-left:4px;&quot;&gt;اتصال و مدیریت ارتباط با لول ۲ و دربافت اطلاعات ورق&lt;/p&gt;&lt;p style=&quot;margin:0px;margin-left:4px;&quot;&gt;&lt;br&gt;&lt;/p&gt;" style="verticalAlign=top;align=left;overflow=fill;fontSize=12;fontFamily=Helvetica;html=1;whiteSpace=wrap;" vertex="1" parent="YUj-WmIUT_tyeGoXXUWg-99">
          <mxGeometry y="26" width="240" height="80.95726495726497" as="geometry" />
        </mxCell>
        <mxCell id="YUj-WmIUT_tyeGoXXUWg-101" value="" style="line;strokeWidth=1;fillColor=none;align=left;verticalAlign=middle;spacingTop=-1;spacingLeft=3;spacingRight=3;rotatable=0;labelPosition=right;points=[];portConstraint=eastwest;strokeColor=inherit;" vertex="1" parent="YUj-WmIUT_tyeGoXXUWg-99">
          <mxGeometry y="106.95726495726497" width="240" height="8.752136752136753" as="geometry" />
        </mxCell>
        <mxCell id="YUj-WmIUT_tyeGoXXUWg-104" value="+ item: attribute" style="text;strokeColor=none;fillColor=none;align=left;verticalAlign=top;spacingLeft=4;spacingRight=4;overflow=hidden;rotatable=0;points=[[0,0.5],[1,0.5]];portConstraint=eastwest;whiteSpace=wrap;html=1;" vertex="1" parent="YUj-WmIUT_tyeGoXXUWg-99">
          <mxGeometry y="115.70940170940172" width="240" height="32.820512820512825" as="geometry" />
        </mxCell>
        <mxCell id="YUj-WmIUT_tyeGoXXUWg-15" value="binary_list_funcs" style="swimlane;fontStyle=1;align=center;verticalAlign=top;childLayout=stackLayout;horizontal=1;startSize=26;horizontalStack=0;resizeParent=1;resizeParentMax=0;resizeLast=0;collapsible=1;marginBottom=0;whiteSpace=wrap;html=1;" vertex="1" parent="YUj-WmIUT_tyeGoXXUWg-181">
          <mxGeometry x="10.00272727272727" y="597.3333333333334" width="240" height="128.83760683760684" as="geometry">
            <mxRectangle x="227.27272727272728" y="423" width="431.81818181818187" height="30" as="alternateBounds" />
          </mxGeometry>
        </mxCell>
        <mxCell id="YUj-WmIUT_tyeGoXXUWg-16" value="درست کردن اسلایدر نمایش تصاویر و حرکت و ماکسیمایز شدن" style="text;strokeColor=none;fillColor=none;align=left;verticalAlign=top;spacingLeft=4;spacingRight=4;overflow=hidden;rotatable=0;points=[[0,0.5],[1,0.5]];portConstraint=eastwest;whiteSpace=wrap;html=1;" vertex="1" parent="YUj-WmIUT_tyeGoXXUWg-15">
          <mxGeometry y="26" width="240" height="37.1965811965812" as="geometry" />
        </mxCell>
        <mxCell id="YUj-WmIUT_tyeGoXXUWg-17" value="" style="line;strokeWidth=1;fillColor=none;align=left;verticalAlign=middle;spacingTop=-1;spacingLeft=3;spacingRight=3;rotatable=0;labelPosition=right;points=[];portConstraint=eastwest;strokeColor=inherit;" vertex="1" parent="YUj-WmIUT_tyeGoXXUWg-15">
          <mxGeometry y="63.1965811965812" width="240" height="8.752136752136753" as="geometry" />
        </mxCell>
        <mxCell id="YUj-WmIUT_tyeGoXXUWg-19" value="+ item: attribute" style="text;strokeColor=none;fillColor=none;align=left;verticalAlign=top;spacingLeft=4;spacingRight=4;overflow=hidden;rotatable=0;points=[[0,0.5],[1,0.5]];portConstraint=eastwest;whiteSpace=wrap;html=1;" vertex="1" parent="YUj-WmIUT_tyeGoXXUWg-15">
          <mxGeometry y="71.94871794871796" width="240" height="28.444444444444446" as="geometry" />
        </mxCell>
        <mxCell id="YUj-WmIUT_tyeGoXXUWg-20" value="+ item: attribute" style="text;strokeColor=none;fillColor=none;align=left;verticalAlign=top;spacingLeft=4;spacingRight=4;overflow=hidden;rotatable=0;points=[[0,0.5],[1,0.5]];portConstraint=eastwest;whiteSpace=wrap;html=1;" vertex="1" parent="YUj-WmIUT_tyeGoXXUWg-15">
          <mxGeometry y="100.3931623931624" width="240" height="28.444444444444446" as="geometry" />
        </mxCell>
        <mxCell id="YUj-WmIUT_tyeGoXXUWg-93" value="mouse" style="swimlane;fontStyle=1;align=center;verticalAlign=top;childLayout=stackLayout;horizontal=1;startSize=26;horizontalStack=0;resizeParent=1;resizeParentMax=0;resizeLast=0;collapsible=1;marginBottom=0;whiteSpace=wrap;html=1;" vertex="1" parent="YUj-WmIUT_tyeGoXXUWg-181">
          <mxGeometry x="10" y="743.931623931624" width="240" height="124.46153846153847" as="geometry">
            <mxRectangle x="230" y="568" width="429.09" height="30" as="alternateBounds" />
          </mxGeometry>
        </mxCell>
        <mxCell id="YUj-WmIUT_tyeGoXXUWg-112" value="&lt;p style=&quot;margin:0px;margin-top:4px;text-align:center;&quot;&gt;&lt;b&gt;Class Mouse&lt;/b&gt;&lt;/p&gt;&lt;hr size=&quot;1&quot;&gt;&lt;p style=&quot;margin:0px;margin-left:4px;&quot;&gt;دریافت موقعیت موس به صورت حقیقی و نسبی با ویچت تعریف شده&amp;nbsp;&lt;/p&gt;" style="verticalAlign=top;align=left;overflow=fill;fontSize=12;fontFamily=Helvetica;html=1;whiteSpace=wrap;" vertex="1" parent="YUj-WmIUT_tyeGoXXUWg-93">
          <mxGeometry y="26" width="240" height="70.01709401709402" as="geometry" />
        </mxCell>
        <mxCell id="YUj-WmIUT_tyeGoXXUWg-94" value="+ field: type" style="text;strokeColor=none;fillColor=none;align=left;verticalAlign=top;spacingLeft=4;spacingRight=4;overflow=hidden;rotatable=0;points=[[0,0.5],[1,0.5]];portConstraint=eastwest;whiteSpace=wrap;html=1;" vertex="1" parent="YUj-WmIUT_tyeGoXXUWg-93">
          <mxGeometry y="96.01709401709402" width="240" height="28.444444444444446" as="geometry" />
        </mxCell>
        <mxCell id="YUj-WmIUT_tyeGoXXUWg-37" value="chart_funcs" style="swimlane;fontStyle=1;align=center;verticalAlign=top;childLayout=stackLayout;horizontal=1;startSize=26;horizontalStack=0;resizeParent=1;resizeParentMax=0;resizeLast=0;collapsible=1;marginBottom=0;whiteSpace=wrap;html=1;" vertex="1" parent="YUj-WmIUT_tyeGoXXUWg-181">
          <mxGeometry x="10.00272727272727" y="886.1538461538462" width="240" height="122.27350427350427" as="geometry">
            <mxRectangle x="227.27272727272728" y="608" width="431.81818181818187" height="30" as="alternateBounds" />
          </mxGeometry>
        </mxCell>
        <mxCell id="YUj-WmIUT_tyeGoXXUWg-38" value="ساختن و اپدیت کردن کلیه&amp;nbsp; چارت های نرم افزار شامل ترین یاینری یولو و ..." style="text;strokeColor=none;fillColor=none;align=left;verticalAlign=top;spacingLeft=4;spacingRight=4;overflow=hidden;rotatable=0;points=[[0,0.5],[1,0.5]];portConstraint=eastwest;whiteSpace=wrap;html=1;" vertex="1" parent="YUj-WmIUT_tyeGoXXUWg-37">
          <mxGeometry y="26" width="240" height="59.07692307692308" as="geometry" />
        </mxCell>
        <mxCell id="YUj-WmIUT_tyeGoXXUWg-39" value="" style="line;strokeWidth=1;fillColor=none;align=left;verticalAlign=middle;spacingTop=-1;spacingLeft=3;spacingRight=3;rotatable=0;labelPosition=right;points=[];portConstraint=eastwest;strokeColor=inherit;" vertex="1" parent="YUj-WmIUT_tyeGoXXUWg-37">
          <mxGeometry y="85.07692307692308" width="240" height="8.752136752136753" as="geometry" />
        </mxCell>
        <mxCell id="YUj-WmIUT_tyeGoXXUWg-42" value="+ item: attribute" style="text;strokeColor=none;fillColor=none;align=left;verticalAlign=top;spacingLeft=4;spacingRight=4;overflow=hidden;rotatable=0;points=[[0,0.5],[1,0.5]];portConstraint=eastwest;whiteSpace=wrap;html=1;" vertex="1" parent="YUj-WmIUT_tyeGoXXUWg-37">
          <mxGeometry y="93.82905982905983" width="240" height="28.444444444444446" as="geometry" />
        </mxCell>
        <mxCell id="YUj-WmIUT_tyeGoXXUWg-172" value="user_login_logout_funcs" style="swimlane;fontStyle=1;align=center;verticalAlign=top;childLayout=stackLayout;horizontal=1;startSize=26;horizontalStack=0;resizeParent=1;resizeParentMax=0;resizeLast=0;collapsible=1;marginBottom=0;whiteSpace=wrap;html=1;" vertex="1" parent="YUj-WmIUT_tyeGoXXUWg-181">
          <mxGeometry x="10.00272727272727" y="1028.3760683760686" width="240" height="91.64102564102564" as="geometry">
            <mxRectangle x="310.00272727272727" y="1260" width="431.81818181818187" height="30" as="alternateBounds" />
          </mxGeometry>
        </mxCell>
        <mxCell id="YUj-WmIUT_tyeGoXXUWg-173" value="مدیرت ورود و خروج کاربر" style="text;strokeColor=none;fillColor=none;align=left;verticalAlign=top;spacingLeft=4;spacingRight=4;overflow=hidden;rotatable=0;points=[[0,0.5],[1,0.5]];portConstraint=eastwest;whiteSpace=wrap;html=1;" vertex="1" parent="YUj-WmIUT_tyeGoXXUWg-172">
          <mxGeometry y="26" width="240" height="28.444444444444446" as="geometry" />
        </mxCell>
        <mxCell id="YUj-WmIUT_tyeGoXXUWg-174" value="" style="line;strokeWidth=1;fillColor=none;align=left;verticalAlign=middle;spacingTop=-1;spacingLeft=3;spacingRight=3;rotatable=0;labelPosition=right;points=[];portConstraint=eastwest;strokeColor=inherit;" vertex="1" parent="YUj-WmIUT_tyeGoXXUWg-172">
          <mxGeometry y="54.44444444444444" width="240" height="8.752136752136753" as="geometry" />
        </mxCell>
        <mxCell id="YUj-WmIUT_tyeGoXXUWg-177" value="+ item: attribute" style="text;strokeColor=none;fillColor=none;align=left;verticalAlign=top;spacingLeft=4;spacingRight=4;overflow=hidden;rotatable=0;points=[[0,0.5],[1,0.5]];portConstraint=eastwest;whiteSpace=wrap;html=1;" vertex="1" parent="YUj-WmIUT_tyeGoXXUWg-172">
          <mxGeometry y="63.19658119658119" width="240" height="28.444444444444446" as="geometry" />
        </mxCell>
        <mxCell id="YUj-WmIUT_tyeGoXXUWg-87" value="pathStructure" style="swimlane;fontStyle=1;align=center;verticalAlign=top;childLayout=stackLayout;horizontal=1;startSize=26;horizontalStack=0;resizeParent=1;resizeParentMax=0;resizeLast=0;collapsible=1;marginBottom=0;whiteSpace=wrap;html=1;" vertex="1" parent="YUj-WmIUT_tyeGoXXUWg-181">
          <mxGeometry x="510.00272727272727" y="1065.5726495726497" width="240" height="54.44444444444444" as="geometry">
            <mxRectangle x="837.2727272727273" y="1230" width="431.81818181818187" height="30" as="alternateBounds" />
          </mxGeometry>
        </mxCell>
        <mxCell id="YUj-WmIUT_tyeGoXXUWg-88" value="ساختن فولدر برای ورق های جدید&lt;br&gt;" style="text;strokeColor=none;fillColor=none;align=left;verticalAlign=top;spacingLeft=4;spacingRight=4;overflow=hidden;rotatable=0;points=[[0,0.5],[1,0.5]];portConstraint=eastwest;whiteSpace=wrap;html=1;" vertex="1" parent="YUj-WmIUT_tyeGoXXUWg-87">
          <mxGeometry y="26" width="240" height="28.444444444444446" as="geometry" />
        </mxCell>
        <mxCell id="YUj-WmIUT_tyeGoXXUWg-121" value="notification_popup" style="swimlane;fontStyle=1;align=center;verticalAlign=top;childLayout=stackLayout;horizontal=1;startSize=26;horizontalStack=0;resizeParent=1;resizeParentMax=0;resizeLast=0;collapsible=1;marginBottom=0;whiteSpace=wrap;html=1;" vertex="1" parent="YUj-WmIUT_tyeGoXXUWg-181">
          <mxGeometry x="510.00272727272727" y="1133.15" width="240" height="116" as="geometry">
            <mxRectangle x="227.27272727272728" y="808" width="431.81818181818187" height="30" as="alternateBounds" />
          </mxGeometry>
        </mxCell>
        <mxCell id="YUj-WmIUT_tyeGoXXUWg-111" value="&lt;p style=&quot;margin:0px;margin-top:4px;text-align:center;&quot;&gt;&lt;b&gt;Class&amp;nbsp;NotificationWindow&lt;/b&gt;&lt;/p&gt;&lt;hr size=&quot;1&quot;&gt;&lt;p style=&quot;margin:0px;margin-left:4px;&quot;&gt;نمایش نوتیفیکش در سیستم عامل بسته&amp;nbsp;&lt;/p&gt;&lt;p style=&quot;margin:0px;margin-left:4px;&quot;&gt;دارای ۴ حالت مختلف&lt;/p&gt;&lt;hr size=&quot;1&quot;&gt;&lt;p style=&quot;margin:0px;margin-left:4px;&quot;&gt;+ method(): Type&lt;/p&gt;" style="verticalAlign=top;align=left;overflow=fill;fontSize=12;fontFamily=Helvetica;html=1;whiteSpace=wrap;" vertex="1" parent="YUj-WmIUT_tyeGoXXUWg-121">
          <mxGeometry y="26" width="240" height="64" as="geometry" />
        </mxCell>
        <mxCell id="YUj-WmIUT_tyeGoXXUWg-122" value="+ field: type" style="text;strokeColor=none;fillColor=none;align=left;verticalAlign=top;spacingLeft=4;spacingRight=4;overflow=hidden;rotatable=0;points=[[0,0.5],[1,0.5]];portConstraint=eastwest;whiteSpace=wrap;html=1;" vertex="1" parent="YUj-WmIUT_tyeGoXXUWg-121">
          <mxGeometry y="90" width="240" height="26" as="geometry" />
        </mxCell>
        <mxCell id="YUj-WmIUT_tyeGoXXUWg-81" value="date_funcs" style="swimlane;fontStyle=1;align=center;verticalAlign=top;childLayout=stackLayout;horizontal=1;startSize=26;horizontalStack=0;resizeParent=1;resizeParentMax=0;resizeLast=0;collapsible=1;marginBottom=0;whiteSpace=wrap;html=1;" vertex="1" parent="YUj-WmIUT_tyeGoXXUWg-181">
          <mxGeometry x="260.00272727272727" y="1150" width="240" height="124" as="geometry">
            <mxRectangle x="970.0027272727273" y="1400" width="431.81818181818187" height="30" as="alternateBounds" />
          </mxGeometry>
        </mxCell>
        <mxCell id="YUj-WmIUT_tyeGoXXUWg-82" value="گرفتن ساعت و زمان به صورت شمسی و میلادی برای حالت فولدر درست کردن حالت عادی" style="text;strokeColor=none;fillColor=none;align=left;verticalAlign=top;spacingLeft=4;spacingRight=4;overflow=hidden;rotatable=0;points=[[0,0.5],[1,0.5]];portConstraint=eastwest;whiteSpace=wrap;html=1;" vertex="1" parent="YUj-WmIUT_tyeGoXXUWg-81">
          <mxGeometry y="26" width="240" height="64" as="geometry" />
        </mxCell>
        <mxCell id="YUj-WmIUT_tyeGoXXUWg-83" value="" style="line;strokeWidth=1;fillColor=none;align=left;verticalAlign=middle;spacingTop=-1;spacingLeft=3;spacingRight=3;rotatable=0;labelPosition=right;points=[];portConstraint=eastwest;strokeColor=inherit;" vertex="1" parent="YUj-WmIUT_tyeGoXXUWg-81">
          <mxGeometry y="90" width="240" height="8" as="geometry" />
        </mxCell>
        <mxCell id="YUj-WmIUT_tyeGoXXUWg-86" value="+ item: attribute" style="text;strokeColor=none;fillColor=none;align=left;verticalAlign=top;spacingLeft=4;spacingRight=4;overflow=hidden;rotatable=0;points=[[0,0.5],[1,0.5]];portConstraint=eastwest;whiteSpace=wrap;html=1;" vertex="1" parent="YUj-WmIUT_tyeGoXXUWg-81">
          <mxGeometry y="98" width="240" height="26" as="geometry" />
        </mxCell>
        <mxCell id="YUj-WmIUT_tyeGoXXUWg-49" value="classification_list_funcs" style="swimlane;fontStyle=1;align=center;verticalAlign=top;childLayout=stackLayout;horizontal=1;startSize=26;horizontalStack=0;resizeParent=1;resizeParentMax=0;resizeLast=0;collapsible=1;marginBottom=0;whiteSpace=wrap;html=1;" vertex="1" parent="YUj-WmIUT_tyeGoXXUWg-181">
          <mxGeometry x="10.00272727272727" y="1140" width="240" height="144" as="geometry">
            <mxRectangle x="360.00272727272727" y="1330" width="431.81818181818187" height="30" as="alternateBounds" />
          </mxGeometry>
        </mxCell>
        <mxCell id="YUj-WmIUT_tyeGoXXUWg-50" value="درست کردن اسلایدر نمایش تصاویر و حرکت و ماکسیمایز شدن&lt;br&gt;لود کردن عیوب مشابه&amp;nbsp;&lt;br&gt;چک کردن عیوب در جیسون ها" style="text;strokeColor=none;fillColor=none;align=left;verticalAlign=top;spacingLeft=4;spacingRight=4;overflow=hidden;rotatable=0;points=[[0,0.5],[1,0.5]];portConstraint=eastwest;whiteSpace=wrap;html=1;" vertex="1" parent="YUj-WmIUT_tyeGoXXUWg-49">
          <mxGeometry y="26" width="240" height="84" as="geometry" />
        </mxCell>
        <mxCell id="YUj-WmIUT_tyeGoXXUWg-51" value="" style="line;strokeWidth=1;fillColor=none;align=left;verticalAlign=middle;spacingTop=-1;spacingLeft=3;spacingRight=3;rotatable=0;labelPosition=right;points=[];portConstraint=eastwest;strokeColor=inherit;" vertex="1" parent="YUj-WmIUT_tyeGoXXUWg-49">
          <mxGeometry y="110" width="240" height="8" as="geometry" />
        </mxCell>
        <mxCell id="YUj-WmIUT_tyeGoXXUWg-53" value="+ item: attribute" style="text;strokeColor=none;fillColor=none;align=left;verticalAlign=top;spacingLeft=4;spacingRight=4;overflow=hidden;rotatable=0;points=[[0,0.5],[1,0.5]];portConstraint=eastwest;whiteSpace=wrap;html=1;" vertex="1" parent="YUj-WmIUT_tyeGoXXUWg-49">
          <mxGeometry y="118" width="240" height="26" as="geometry" />
        </mxCell>
        <mxCell id="YUj-WmIUT_tyeGoXXUWg-60" value="colors_pallete" style="swimlane;fontStyle=1;align=center;verticalAlign=top;childLayout=stackLayout;horizontal=1;startSize=26;horizontalStack=0;resizeParent=1;resizeParentMax=0;resizeLast=0;collapsible=1;marginBottom=0;whiteSpace=wrap;html=1;" vertex="1" parent="YUj-WmIUT_tyeGoXXUWg-181">
          <mxGeometry x="510.00272727272727" y="1274" width="240" height="60" as="geometry">
            <mxRectangle x="504.0927272727273" y="1410" width="431.81818181818187" height="30" as="alternateBounds" />
          </mxGeometry>
        </mxCell>
        <mxCell id="YUj-WmIUT_tyeGoXXUWg-61" value="کد های رنگی استفاده شده در نرم افزار" style="text;strokeColor=none;fillColor=none;align=left;verticalAlign=top;spacingLeft=4;spacingRight=4;overflow=hidden;rotatable=0;points=[[0,0.5],[1,0.5]];portConstraint=eastwest;whiteSpace=wrap;html=1;" vertex="1" parent="YUj-WmIUT_tyeGoXXUWg-60">
          <mxGeometry y="26" width="240" height="26" as="geometry" />
        </mxCell>
        <mxCell id="YUj-WmIUT_tyeGoXXUWg-62" value="" style="line;strokeWidth=1;fillColor=none;align=left;verticalAlign=middle;spacingTop=-1;spacingLeft=3;spacingRight=3;rotatable=0;labelPosition=right;points=[];portConstraint=eastwest;strokeColor=inherit;" vertex="1" parent="YUj-WmIUT_tyeGoXXUWg-60">
          <mxGeometry y="52" width="240" height="8" as="geometry" />
        </mxCell>
        <mxCell id="YUj-WmIUT_tyeGoXXUWg-29" value="camera_connection" style="swimlane;fontStyle=1;align=center;verticalAlign=top;childLayout=stackLayout;horizontal=1;startSize=26;horizontalStack=0;resizeParent=1;resizeParentMax=0;resizeLast=0;collapsible=1;marginBottom=0;whiteSpace=wrap;html=1;" vertex="1" parent="YUj-WmIUT_tyeGoXXUWg-181">
          <mxGeometry x="509.00272727272727" y="501.2478632478633" width="240" height="222.92307692307693" as="geometry">
            <mxRectangle x="227.27272727272728" y="519" width="431.81818181818187" height="30" as="alternateBounds" />
          </mxGeometry>
        </mxCell>
        <mxCell id="YUj-WmIUT_tyeGoXXUWg-35" value="&lt;p style=&quot;margin:0px;margin-top:4px;text-align:center;&quot;&gt;&lt;b&gt;Class collector&lt;/b&gt;&lt;/p&gt;&lt;hr size=&quot;1&quot;&gt;&lt;p style=&quot;margin:0px;margin-left:4px;&quot;&gt;اتصال به دوربین و اعمال تنظیمات دوربین و گرفتن تصویر&lt;/p&gt;" style="verticalAlign=top;align=left;overflow=fill;fontSize=12;fontFamily=Helvetica;html=1;whiteSpace=wrap;" vertex="1" parent="YUj-WmIUT_tyeGoXXUWg-29">
          <mxGeometry y="26" width="240" height="98.46153846153847" as="geometry" />
        </mxCell>
        <mxCell id="YUj-WmIUT_tyeGoXXUWg-36" value="&lt;p style=&quot;margin:0px;margin-top:4px;text-align:center;&quot;&gt;&lt;b&gt;Class&amp;nbsp;connect_manage_cameras&lt;/b&gt;&lt;/p&gt;&lt;hr size=&quot;1&quot;&gt;&lt;p style=&quot;margin:0px;margin-left:4px;&quot;&gt;مدیریت اتصال به دوربین ها و اضافه و حذف کردن دوربین های متصل&lt;/p&gt;&lt;hr size=&quot;1&quot;&gt;&lt;p style=&quot;margin:0px;margin-left:4px;&quot;&gt;+ method(): Type&lt;/p&gt;" style="verticalAlign=top;align=left;overflow=fill;fontSize=12;fontFamily=Helvetica;html=1;whiteSpace=wrap;" vertex="1" parent="YUj-WmIUT_tyeGoXXUWg-29">
          <mxGeometry y="124.46153846153847" width="240" height="98.46153846153847" as="geometry" />
        </mxCell>
        <mxCell id="YUj-WmIUT_tyeGoXXUWg-182" value="backend" style="text;align=center;fontStyle=1;verticalAlign=middle;spacingLeft=3;spacingRight=3;strokeColor=none;rotatable=0;points=[[0,0.5],[1,0.5]];portConstraint=eastwest;html=1;fontSize=17;" vertex="1" parent="YUj-WmIUT_tyeGoXXUWg-184">
          <mxGeometry x="-47" y="100" width="181.81818181818184" height="26" as="geometry" />
        </mxCell>
        <mxCell id="YUj-WmIUT_tyeGoXXUWg-186" value="" style="edgeStyle=orthogonalEdgeStyle;rounded=0;orthogonalLoop=1;jettySize=auto;html=1;" edge="1" parent="YUj-WmIUT_tyeGoXXUWg-184" source="YUj-WmIUT_tyeGoXXUWg-99" target="5TA8-3koPhKkjeQelwCI-5">
          <mxGeometry relative="1" as="geometry" />
        </mxCell>
        <mxCell id="JxUX2Kx3jJCMiavoZk_R-121" value="&lt;div style=&quot;text-align: left;&quot;&gt;&lt;span style=&quot;background-color: initial;&quot;&gt;ip : 192.168.1.102&lt;/span&gt;&lt;/div&gt;&lt;div style=&quot;text-align: left;&quot;&gt;&lt;span style=&quot;background-color: initial;&quot;&gt;port : 5000&lt;/span&gt;&lt;/div&gt;&lt;div style=&quot;text-align: left;&quot;&gt;&lt;span style=&quot;background-color: initial;&quot;&gt;fiberoptic,opcua&lt;/span&gt;&lt;/div&gt;" style="rounded=1;whiteSpace=wrap;html=1;" vertex="1" parent="YUj-WmIUT_tyeGoXXUWg-184">
          <mxGeometry x="100" y="50" width="120" height="60" as="geometry" />
        </mxCell>
        <mxCell id="JxUX2Kx3jJCMiavoZk_R-124" style="edgeStyle=orthogonalEdgeStyle;rounded=0;orthogonalLoop=1;jettySize=auto;html=1;exitX=0.5;exitY=0;exitDx=0;exitDy=0;entryX=0.5;entryY=1;entryDx=0;entryDy=0;" edge="1" parent="YUj-WmIUT_tyeGoXXUWg-184" source="YUj-WmIUT_tyeGoXXUWg-133" target="JxUX2Kx3jJCMiavoZk_R-121">
          <mxGeometry relative="1" as="geometry" />
        </mxCell>
        <mxCell id="JxUX2Kx3jJCMiavoZk_R-126" value="&lt;div style=&quot;text-align: left;&quot;&gt;&lt;span style=&quot;background-color: initial;&quot;&gt;ip : 192.168.1.500&lt;/span&gt;&lt;/div&gt;&lt;div style=&quot;text-align: left;&quot;&gt;&lt;span style=&quot;background-color: initial;&quot;&gt;port : 5000&lt;/span&gt;&lt;/div&gt;&lt;div style=&quot;text-align: left;&quot;&gt;&lt;span style=&quot;background-color: initial;&quot;&gt;fiberoptic,tcp/ip&lt;/span&gt;&lt;/div&gt;" style="rounded=1;whiteSpace=wrap;html=1;" vertex="1" parent="YUj-WmIUT_tyeGoXXUWg-184">
          <mxGeometry x="330" y="50" width="120" height="60" as="geometry" />
        </mxCell>
        <mxCell id="YUj-WmIUT_tyeGoXXUWg-190" style="edgeStyle=orthogonalEdgeStyle;rounded=0;orthogonalLoop=1;jettySize=auto;html=1;" edge="1" parent="1" source="YUj-WmIUT_tyeGoXXUWg-35" target="5TA8-3koPhKkjeQelwCI-9">
          <mxGeometry relative="1" as="geometry" />
        </mxCell>
        <mxCell id="YUj-WmIUT_tyeGoXXUWg-157" value="+ field: type" style="text;strokeColor=none;fillColor=none;align=left;verticalAlign=top;spacingLeft=4;spacingRight=4;overflow=hidden;rotatable=0;points=[[0,0.5],[1,0.5]];portConstraint=eastwest;whiteSpace=wrap;html=1;" vertex="1" parent="1">
          <mxGeometry x="1670" y="1456" width="160" height="26" as="geometry" />
        </mxCell>
        <mxCell id="JxUX2Kx3jJCMiavoZk_R-1" value="" style="whiteSpace=wrap;html=1;fillColor=#e1d5e7;strokeColor=#9673a6;" vertex="1" parent="1">
          <mxGeometry x="480" y="1282" width="1640" height="1054" as="geometry" />
        </mxCell>
        <mxCell id="JxUX2Kx3jJCMiavoZk_R-2" value="Dataset Path structure" style="text;align=center;fontStyle=1;verticalAlign=middle;spacingLeft=3;spacingRight=3;strokeColor=none;rotatable=0;points=[[0,0.5],[1,0.5]];portConstraint=eastwest;html=1;fontSize=17;" vertex="1" parent="1">
          <mxGeometry x="922" y="2852" width="181.81818181818184" height="26" as="geometry" />
        </mxCell>
        <mxCell id="JxUX2Kx3jJCMiavoZk_R-9" value="" style="group" vertex="1" connectable="0" parent="1">
          <mxGeometry x="510" y="1301" width="338" height="100" as="geometry" />
        </mxCell>
        <mxCell id="JxUX2Kx3jJCMiavoZk_R-10" value="" style="group" vertex="1" connectable="0" parent="JxUX2Kx3jJCMiavoZk_R-9">
          <mxGeometry width="338" height="100" as="geometry" />
        </mxCell>
        <mxCell id="JxUX2Kx3jJCMiavoZk_R-7" value="&lt;font style=&quot;font-size: 20px; font-weight: normal;&quot;&gt;&lt;blockquote style=&quot;margin: 0 0 0 40px; border: none; padding: 0px;&quot;&gt;&lt;font style=&quot;font-size: 20px; font-weight: normal;&quot;&gt;&lt;br style=&quot;border-color: var(--border-color); text-decoration-line: underline;&quot;&gt;&lt;/font&gt;&lt;font style=&quot;font-size: 20px; font-weight: normal;&quot;&gt;لیبل های تصاویر لیبل زده در هر دیتاست در این فولدر قرار میگیرند&lt;/font&gt;&lt;/blockquote&gt;&lt;/font&gt;" style="shape=folder;fontStyle=1;spacingTop=10;tabWidth=148;tabHeight=30;tabPosition=left;html=1;whiteSpace=wrap;align=right;" vertex="1" parent="JxUX2Kx3jJCMiavoZk_R-10">
          <mxGeometry width="338" height="100" as="geometry" />
        </mxCell>
        <mxCell id="JxUX2Kx3jJCMiavoZk_R-8" value="&lt;font style=&quot;font-size: 17px;&quot;&gt;Annotations&lt;/font&gt;" style="text;align=center;fontStyle=1;verticalAlign=middle;spacingLeft=3;spacingRight=3;strokeColor=none;rotatable=0;points=[[0,0.5],[1,0.5]];portConstraint=eastwest;html=1;" vertex="1" parent="JxUX2Kx3jJCMiavoZk_R-10">
          <mxGeometry x="481" y="2384.75" width="80" height="16.25" as="geometry" />
        </mxCell>
        <mxCell id="JxUX2Kx3jJCMiavoZk_R-129" value="&lt;span style=&quot;font-size: 17px;&quot;&gt;Images&lt;/span&gt;" style="text;align=center;fontStyle=1;verticalAlign=middle;spacingLeft=3;spacingRight=3;strokeColor=none;rotatable=0;points=[[0,0.5],[1,0.5]];portConstraint=eastwest;html=1;" vertex="1" parent="JxUX2Kx3jJCMiavoZk_R-10">
          <mxGeometry x="10" y="5" width="80" height="16.25" as="geometry" />
        </mxCell>
        <mxCell id="JxUX2Kx3jJCMiavoZk_R-11" value="" style="group" vertex="1" connectable="0" parent="1">
          <mxGeometry x="950" y="1301" width="338" height="100" as="geometry" />
        </mxCell>
        <mxCell id="JxUX2Kx3jJCMiavoZk_R-12" value="" style="group" vertex="1" connectable="0" parent="JxUX2Kx3jJCMiavoZk_R-11">
          <mxGeometry width="338" height="100" as="geometry" />
        </mxCell>
        <mxCell id="JxUX2Kx3jJCMiavoZk_R-13" value="&lt;font style=&quot;font-size: 20px; font-weight: normal;&quot;&gt;&lt;blockquote style=&quot;margin: 0 0 0 40px; border: none; padding: 0px;&quot;&gt;تصاویر لیبل خورده در این فولدر قرار میگیرند&lt;/blockquote&gt;&lt;/font&gt;" style="shape=folder;fontStyle=1;spacingTop=10;tabWidth=148;tabHeight=30;tabPosition=left;html=1;whiteSpace=wrap;align=right;" vertex="1" parent="JxUX2Kx3jJCMiavoZk_R-12">
          <mxGeometry width="338" height="100" as="geometry" />
        </mxCell>
        <mxCell id="JxUX2Kx3jJCMiavoZk_R-14" value="&lt;span style=&quot;font-size: 17px;&quot;&gt;Images&lt;/span&gt;" style="text;align=center;fontStyle=1;verticalAlign=middle;spacingLeft=3;spacingRight=3;strokeColor=none;rotatable=0;points=[[0,0.5],[1,0.5]];portConstraint=eastwest;html=1;" vertex="1" parent="JxUX2Kx3jJCMiavoZk_R-12">
          <mxGeometry x="9" y="6.75" width="80" height="16.25" as="geometry" />
        </mxCell>
        <mxCell id="JxUX2Kx3jJCMiavoZk_R-15" value="" style="group" vertex="1" connectable="0" parent="1">
          <mxGeometry x="260" y="1415.0700000000002" width="660" height="870" as="geometry" />
        </mxCell>
        <mxCell id="JxUX2Kx3jJCMiavoZk_R-16" value="" style="group" vertex="1" connectable="0" parent="JxUX2Kx3jJCMiavoZk_R-15">
          <mxGeometry x="252" y="11.93" width="660" height="870" as="geometry" />
        </mxCell>
        <mxCell id="JxUX2Kx3jJCMiavoZk_R-20" value="" style="group" vertex="1" connectable="0" parent="JxUX2Kx3jJCMiavoZk_R-16">
          <mxGeometry x="29" y="56.61" width="631" height="800" as="geometry" />
        </mxCell>
        <mxCell id="JxUX2Kx3jJCMiavoZk_R-21" value="" style="group" vertex="1" connectable="0" parent="JxUX2Kx3jJCMiavoZk_R-20">
          <mxGeometry width="631" height="800" as="geometry" />
        </mxCell>
        <mxCell id="JxUX2Kx3jJCMiavoZk_R-17" value="&lt;font style=&quot;font-size: 20px; font-weight: normal;&quot;&gt;&lt;blockquote style=&quot;margin: 0 0 0 40px; border: none; padding: 0px;&quot;&gt;&lt;br&gt;&lt;/blockquote&gt;&lt;/font&gt;" style="shape=folder;fontStyle=1;spacingTop=10;tabWidth=148;tabHeight=30;tabPosition=left;html=1;whiteSpace=wrap;align=right;" vertex="1" parent="JxUX2Kx3jJCMiavoZk_R-21">
          <mxGeometry x="-30" y="-70" width="410" height="870" as="geometry" />
        </mxCell>
        <mxCell id="JxUX2Kx3jJCMiavoZk_R-22" value="&lt;font style=&quot;font-size: 20px; font-weight: normal;&quot;&gt;&lt;blockquote style=&quot;margin: 0 0 0 40px; border: none; padding: 0px;&quot;&gt;تصاویر دارای عیب در این فولدر قرار میگیرند&lt;/blockquote&gt;&lt;/font&gt;" style="shape=folder;fontStyle=1;spacingTop=10;tabWidth=148;tabHeight=30;tabPosition=left;html=1;whiteSpace=wrap;align=right;" vertex="1" parent="JxUX2Kx3jJCMiavoZk_R-21">
          <mxGeometry width="338" height="114.5" as="geometry" />
        </mxCell>
        <mxCell id="JxUX2Kx3jJCMiavoZk_R-23" value="&lt;span style=&quot;font-size: 17px;&quot;&gt;defect&lt;/span&gt;" style="text;align=center;fontStyle=1;verticalAlign=middle;spacingLeft=3;spacingRight=3;strokeColor=none;rotatable=0;points=[[0,0.5],[1,0.5]];portConstraint=eastwest;html=1;" vertex="1" parent="JxUX2Kx3jJCMiavoZk_R-21">
          <mxGeometry x="69" y="2106.9987499999997" width="80" height="18.606250000000003" as="geometry" />
        </mxCell>
        <mxCell id="JxUX2Kx3jJCMiavoZk_R-130" value="&lt;span style=&quot;font-size: 17px;&quot;&gt;defect&lt;/span&gt;" style="text;align=center;fontStyle=1;verticalAlign=middle;spacingLeft=3;spacingRight=3;strokeColor=none;rotatable=0;points=[[0,0.5],[1,0.5]];portConstraint=eastwest;html=1;" vertex="1" parent="JxUX2Kx3jJCMiavoZk_R-21">
          <mxGeometry x="9" y="7.999999999999886" width="80" height="16.25" as="geometry" />
        </mxCell>
        <mxCell id="JxUX2Kx3jJCMiavoZk_R-132" value="&lt;span style=&quot;font-size: 17px;&quot;&gt;binary&lt;/span&gt;" style="text;align=center;fontStyle=1;verticalAlign=middle;spacingLeft=3;spacingRight=3;strokeColor=none;rotatable=0;points=[[0,0.5],[1,0.5]];portConstraint=eastwest;html=1;" vertex="1" parent="JxUX2Kx3jJCMiavoZk_R-21">
          <mxGeometry x="-25" y="-62.000000000000114" width="80" height="16.25" as="geometry" />
        </mxCell>
        <mxCell id="JxUX2Kx3jJCMiavoZk_R-24" value="" style="group" vertex="1" connectable="0" parent="JxUX2Kx3jJCMiavoZk_R-16">
          <mxGeometry x="29" y="179.61" width="338" height="122.39" as="geometry" />
        </mxCell>
        <mxCell id="JxUX2Kx3jJCMiavoZk_R-25" value="" style="group" vertex="1" connectable="0" parent="JxUX2Kx3jJCMiavoZk_R-24">
          <mxGeometry width="338" height="122.38999999999999" as="geometry" />
        </mxCell>
        <mxCell id="JxUX2Kx3jJCMiavoZk_R-26" value="&lt;font style=&quot;font-size: 20px; font-weight: normal;&quot;&gt;&lt;blockquote style=&quot;margin: 0 0 0 40px; border: none; padding: 0px;&quot;&gt;ماسک تصاویر دارای عیب در این فولدر قرار میگیرند&lt;/blockquote&gt;&lt;/font&gt;" style="shape=folder;fontStyle=1;spacingTop=10;tabWidth=148;tabHeight=30;tabPosition=left;html=1;whiteSpace=wrap;align=right;" vertex="1" parent="JxUX2Kx3jJCMiavoZk_R-25">
          <mxGeometry width="338" height="122.38999999999999" as="geometry" />
        </mxCell>
        <mxCell id="JxUX2Kx3jJCMiavoZk_R-27" value="&lt;span style=&quot;font-size: 17px;&quot;&gt;defectـmask&lt;/span&gt;" style="text;align=center;fontStyle=1;verticalAlign=middle;spacingLeft=3;spacingRight=3;strokeColor=none;rotatable=0;points=[[0,0.5],[1,0.5]];portConstraint=eastwest;html=1;" vertex="1" parent="JxUX2Kx3jJCMiavoZk_R-25">
          <mxGeometry x="29" y="8.261325" width="80" height="19.888375" as="geometry" />
        </mxCell>
        <mxCell id="JxUX2Kx3jJCMiavoZk_R-28" value="" style="group" vertex="1" connectable="0" parent="JxUX2Kx3jJCMiavoZk_R-16">
          <mxGeometry x="29" y="310.61" width="338" height="233.39" as="geometry" />
        </mxCell>
        <mxCell id="JxUX2Kx3jJCMiavoZk_R-29" value="" style="group" vertex="1" connectable="0" parent="JxUX2Kx3jJCMiavoZk_R-28">
          <mxGeometry width="338" height="190.98738769238525" as="geometry" />
        </mxCell>
        <mxCell id="JxUX2Kx3jJCMiavoZk_R-30" value="&lt;font style=&quot;font-size: 20px; font-weight: normal;&quot;&gt;&lt;blockquote style=&quot;margin: 0 0 0 40px; border: none; padding: 0px;&quot;&gt;پس از یکبار ترین با این دیتا ست برای جلوگیری از اسپلیت مجدد تصاویر که کار زمان بری میباشد این تصاویر پس از اسپلیت در این فولدر ذخیره میشوند&lt;/blockquote&gt;&lt;/font&gt;" style="shape=folder;fontStyle=1;spacingTop=10;tabWidth=148;tabHeight=30;tabPosition=left;html=1;whiteSpace=wrap;align=right;" vertex="1" parent="JxUX2Kx3jJCMiavoZk_R-29">
          <mxGeometry width="338" height="190.98738769238525" as="geometry" />
        </mxCell>
        <mxCell id="JxUX2Kx3jJCMiavoZk_R-31" value="&lt;font style=&quot;font-size: 17px;&quot;&gt;defect_splitted&lt;/font&gt;" style="text;align=center;fontStyle=1;verticalAlign=middle;spacingLeft=3;spacingRight=3;strokeColor=none;rotatable=0;points=[[0,0.5],[1,0.5]];portConstraint=eastwest;html=1;" vertex="1" parent="JxUX2Kx3jJCMiavoZk_R-29">
          <mxGeometry x="34" y="4.172754001699586" width="80" height="31.0354505000126" as="geometry" />
        </mxCell>
        <mxCell id="JxUX2Kx3jJCMiavoZk_R-32" value="" style="group" vertex="1" connectable="0" parent="JxUX2Kx3jJCMiavoZk_R-16">
          <mxGeometry x="29" y="511.6099999999999" width="338" height="114.5" as="geometry" />
        </mxCell>
        <mxCell id="JxUX2Kx3jJCMiavoZk_R-33" value="" style="group" vertex="1" connectable="0" parent="JxUX2Kx3jJCMiavoZk_R-32">
          <mxGeometry width="338" height="114.5" as="geometry" />
        </mxCell>
        <mxCell id="JxUX2Kx3jJCMiavoZk_R-34" value="&lt;font style=&quot;font-size: 20px; font-weight: normal;&quot;&gt;&lt;blockquote style=&quot;margin: 0 0 0 40px; border: none; padding: 0px;&quot;&gt;تصاویر بدون عیب برای آموزش سیستم در این فولدر قرار میگیرند&lt;/blockquote&gt;&lt;/font&gt;" style="shape=folder;fontStyle=1;spacingTop=10;tabWidth=148;tabHeight=30;tabPosition=left;html=1;whiteSpace=wrap;align=right;" vertex="1" parent="JxUX2Kx3jJCMiavoZk_R-33">
          <mxGeometry width="338" height="114.5" as="geometry" />
        </mxCell>
        <mxCell id="JxUX2Kx3jJCMiavoZk_R-35" value="&lt;span style=&quot;font-size: 17px;&quot;&gt;perfect&lt;/span&gt;" style="text;align=center;fontStyle=1;verticalAlign=middle;spacingLeft=3;spacingRight=3;strokeColor=none;rotatable=0;points=[[0,0.5],[1,0.5]];portConstraint=eastwest;html=1;" vertex="1" parent="JxUX2Kx3jJCMiavoZk_R-33">
          <mxGeometry x="3" y="6.728750000000001" width="80" height="18.606250000000003" as="geometry" />
        </mxCell>
        <mxCell id="JxUX2Kx3jJCMiavoZk_R-36" value="" style="group" vertex="1" connectable="0" parent="JxUX2Kx3jJCMiavoZk_R-16">
          <mxGeometry x="28" y="643.6099999999999" width="338" height="233.39" as="geometry" />
        </mxCell>
        <mxCell id="JxUX2Kx3jJCMiavoZk_R-37" value="" style="group" vertex="1" connectable="0" parent="JxUX2Kx3jJCMiavoZk_R-36">
          <mxGeometry width="338" height="190.98738769238525" as="geometry" />
        </mxCell>
        <mxCell id="JxUX2Kx3jJCMiavoZk_R-38" value="&lt;font style=&quot;font-size: 20px; font-weight: normal;&quot;&gt;&lt;blockquote style=&quot;margin: 0 0 0 40px; border: none; padding: 0px;&quot;&gt;پس از یکبار ترین با این دیتا ست برای جلوگیری از اسپلیت مجدد تصاویر که کار زمان بری میباشد این تصاویر پس از اسپلیت در این فولدر ذخیره میشوند&lt;/blockquote&gt;&lt;/font&gt;" style="shape=folder;fontStyle=1;spacingTop=10;tabWidth=148;tabHeight=30;tabPosition=left;html=1;whiteSpace=wrap;align=right;" vertex="1" parent="JxUX2Kx3jJCMiavoZk_R-37">
          <mxGeometry width="338" height="190.98738769238525" as="geometry" />
        </mxCell>
        <mxCell id="JxUX2Kx3jJCMiavoZk_R-39" value="&lt;font style=&quot;font-size: 17px;&quot;&gt;perfect_splitted&lt;/font&gt;" style="text;align=center;fontStyle=1;verticalAlign=middle;spacingLeft=3;spacingRight=3;strokeColor=none;rotatable=0;points=[[0,0.5],[1,0.5]];portConstraint=eastwest;html=1;" vertex="1" parent="JxUX2Kx3jJCMiavoZk_R-37">
          <mxGeometry x="34" y="4.172754001699586" width="80" height="31.0354505000126" as="geometry" />
        </mxCell>
        <mxCell id="JxUX2Kx3jJCMiavoZk_R-40" value="" style="group" vertex="1" connectable="0" parent="1">
          <mxGeometry x="950" y="1428.46" width="660" height="870" as="geometry" />
        </mxCell>
        <mxCell id="JxUX2Kx3jJCMiavoZk_R-41" value="" style="group" vertex="1" connectable="0" parent="JxUX2Kx3jJCMiavoZk_R-40">
          <mxGeometry width="660" height="870" as="geometry" />
        </mxCell>
        <mxCell id="JxUX2Kx3jJCMiavoZk_R-42" value="" style="group" vertex="1" connectable="0" parent="JxUX2Kx3jJCMiavoZk_R-41">
          <mxGeometry x="29" y="56.61" width="631" height="800" as="geometry" />
        </mxCell>
        <mxCell id="JxUX2Kx3jJCMiavoZk_R-43" value="" style="group" vertex="1" connectable="0" parent="JxUX2Kx3jJCMiavoZk_R-42">
          <mxGeometry width="631" height="800" as="geometry" />
        </mxCell>
        <mxCell id="JxUX2Kx3jJCMiavoZk_R-44" value="&lt;font style=&quot;font-size: 20px; font-weight: normal;&quot;&gt;&lt;blockquote style=&quot;margin: 0 0 0 40px; border: none; padding: 0px;&quot;&gt;&lt;br&gt;&lt;/blockquote&gt;&lt;/font&gt;" style="shape=folder;fontStyle=1;spacingTop=10;tabWidth=148;tabHeight=30;tabPosition=left;html=1;whiteSpace=wrap;align=right;" vertex="1" parent="JxUX2Kx3jJCMiavoZk_R-43">
          <mxGeometry x="-30" y="-70" width="410" height="870" as="geometry" />
        </mxCell>
        <mxCell id="JxUX2Kx3jJCMiavoZk_R-45" value="&lt;font style=&quot;font-size: 20px; font-weight: normal;&quot;&gt;&lt;blockquote style=&quot;margin: 0 0 0 40px; border: none; padding: 0px;&quot;&gt;&lt;br&gt;&lt;/blockquote&gt;&lt;/font&gt;" style="shape=folder;fontStyle=1;spacingTop=10;tabWidth=148;tabHeight=30;tabPosition=left;html=1;whiteSpace=wrap;align=right;" vertex="1" parent="JxUX2Kx3jJCMiavoZk_R-43">
          <mxGeometry width="338" height="114.5" as="geometry" />
        </mxCell>
        <mxCell id="JxUX2Kx3jJCMiavoZk_R-46" value="&lt;span style=&quot;font-size: 17px;&quot;&gt;annotations&lt;/span&gt;" style="text;align=center;fontStyle=1;verticalAlign=middle;spacingLeft=3;spacingRight=3;strokeColor=none;rotatable=0;points=[[0,0.5],[1,0.5]];portConstraint=eastwest;html=1;" vertex="1" parent="JxUX2Kx3jJCMiavoZk_R-43">
          <mxGeometry x="23" y="6.998749999999973" width="80" height="18.606250000000003" as="geometry" />
        </mxCell>
        <mxCell id="JxUX2Kx3jJCMiavoZk_R-47" value="" style="group" vertex="1" connectable="0" parent="JxUX2Kx3jJCMiavoZk_R-41">
          <mxGeometry x="29" y="179.61" width="338" height="122.39" as="geometry" />
        </mxCell>
        <mxCell id="JxUX2Kx3jJCMiavoZk_R-48" value="" style="group" vertex="1" connectable="0" parent="JxUX2Kx3jJCMiavoZk_R-47">
          <mxGeometry width="338" height="122.38999999999999" as="geometry" />
        </mxCell>
        <mxCell id="JxUX2Kx3jJCMiavoZk_R-49" value="&lt;font style=&quot;font-size: 20px; font-weight: normal;&quot;&gt;&lt;blockquote style=&quot;margin: 0 0 0 40px; border: none; padding: 0px;&quot;&gt;&lt;br&gt;&lt;/blockquote&gt;&lt;/font&gt;" style="shape=folder;fontStyle=1;spacingTop=10;tabWidth=148;tabHeight=30;tabPosition=left;html=1;whiteSpace=wrap;align=right;" vertex="1" parent="JxUX2Kx3jJCMiavoZk_R-48">
          <mxGeometry width="338" height="122.38999999999999" as="geometry" />
        </mxCell>
        <mxCell id="JxUX2Kx3jJCMiavoZk_R-50" value="&lt;span style=&quot;font-size: 17px;&quot;&gt;image&lt;/span&gt;" style="text;align=center;fontStyle=1;verticalAlign=middle;spacingLeft=3;spacingRight=3;strokeColor=none;rotatable=0;points=[[0,0.5],[1,0.5]];portConstraint=eastwest;html=1;" vertex="1" parent="JxUX2Kx3jJCMiavoZk_R-48">
          <mxGeometry x="3" y="8.261325" width="80" height="19.888375" as="geometry" />
        </mxCell>
        <mxCell id="JxUX2Kx3jJCMiavoZk_R-51" value="" style="group" vertex="1" connectable="0" parent="JxUX2Kx3jJCMiavoZk_R-41">
          <mxGeometry x="29" y="310.61" width="338" height="233.39" as="geometry" />
        </mxCell>
        <mxCell id="JxUX2Kx3jJCMiavoZk_R-52" value="" style="group" vertex="1" connectable="0" parent="JxUX2Kx3jJCMiavoZk_R-51">
          <mxGeometry width="338" height="190.98738769238525" as="geometry" />
        </mxCell>
        <mxCell id="JxUX2Kx3jJCMiavoZk_R-53" value="&lt;font style=&quot;font-size: 20px; font-weight: normal;&quot;&gt;&lt;blockquote style=&quot;margin: 0 0 0 40px; border: none; padding: 0px;&quot;&gt;&lt;br&gt;&lt;/blockquote&gt;&lt;/font&gt;" style="shape=folder;fontStyle=1;spacingTop=10;tabWidth=148;tabHeight=30;tabPosition=left;html=1;whiteSpace=wrap;align=right;" vertex="1" parent="JxUX2Kx3jJCMiavoZk_R-52">
          <mxGeometry width="338" height="190.98738769238525" as="geometry" />
        </mxCell>
        <mxCell id="JxUX2Kx3jJCMiavoZk_R-54" value="&lt;font style=&quot;font-size: 17px;&quot;&gt;image_splitted&lt;/font&gt;" style="text;align=center;fontStyle=1;verticalAlign=middle;spacingLeft=3;spacingRight=3;strokeColor=none;rotatable=0;points=[[0,0.5],[1,0.5]];portConstraint=eastwest;html=1;" vertex="1" parent="JxUX2Kx3jJCMiavoZk_R-52">
          <mxGeometry x="34" y="2.1727540016995857" width="80" height="31.0354505000126" as="geometry" />
        </mxCell>
        <mxCell id="JxUX2Kx3jJCMiavoZk_R-55" value="" style="group" vertex="1" connectable="0" parent="JxUX2Kx3jJCMiavoZk_R-41">
          <mxGeometry x="29" y="511.6099999999999" width="338" height="114.5" as="geometry" />
        </mxCell>
        <mxCell id="JxUX2Kx3jJCMiavoZk_R-56" value="" style="group" vertex="1" connectable="0" parent="JxUX2Kx3jJCMiavoZk_R-55">
          <mxGeometry width="338" height="114.5" as="geometry" />
        </mxCell>
        <mxCell id="JxUX2Kx3jJCMiavoZk_R-57" value="&lt;font style=&quot;font-size: 20px; font-weight: normal;&quot;&gt;&lt;blockquote style=&quot;margin: 0 0 0 40px; border: none; padding: 0px;&quot;&gt;&lt;br&gt;&lt;/blockquote&gt;&lt;/font&gt;" style="shape=folder;fontStyle=1;spacingTop=10;tabWidth=148;tabHeight=30;tabPosition=left;html=1;whiteSpace=wrap;align=right;" vertex="1" parent="JxUX2Kx3jJCMiavoZk_R-56">
          <mxGeometry width="338" height="114.5" as="geometry" />
        </mxCell>
        <mxCell id="JxUX2Kx3jJCMiavoZk_R-58" value="&lt;span style=&quot;font-size: 17px;&quot;&gt;label&lt;/span&gt;" style="text;align=center;fontStyle=1;verticalAlign=middle;spacingLeft=3;spacingRight=3;strokeColor=none;rotatable=0;points=[[0,0.5],[1,0.5]];portConstraint=eastwest;html=1;" vertex="1" parent="JxUX2Kx3jJCMiavoZk_R-56">
          <mxGeometry x="-5" y="6.728750000000001" width="80" height="18.606250000000003" as="geometry" />
        </mxCell>
        <mxCell id="JxUX2Kx3jJCMiavoZk_R-59" value="" style="group" vertex="1" connectable="0" parent="JxUX2Kx3jJCMiavoZk_R-41">
          <mxGeometry x="28" y="643.6099999999999" width="338" height="233.39" as="geometry" />
        </mxCell>
        <mxCell id="JxUX2Kx3jJCMiavoZk_R-60" value="" style="group" vertex="1" connectable="0" parent="JxUX2Kx3jJCMiavoZk_R-59">
          <mxGeometry width="338" height="190.98738769238525" as="geometry" />
        </mxCell>
        <mxCell id="JxUX2Kx3jJCMiavoZk_R-61" value="&lt;font style=&quot;font-size: 20px; font-weight: normal;&quot;&gt;&lt;blockquote style=&quot;margin: 0 0 0 40px; border: none; padding: 0px;&quot;&gt;&lt;br&gt;&lt;/blockquote&gt;&lt;/font&gt;" style="shape=folder;fontStyle=1;spacingTop=10;tabWidth=148;tabHeight=30;tabPosition=left;html=1;whiteSpace=wrap;align=right;" vertex="1" parent="JxUX2Kx3jJCMiavoZk_R-60">
          <mxGeometry width="338" height="190.98738769238525" as="geometry" />
        </mxCell>
        <mxCell id="JxUX2Kx3jJCMiavoZk_R-62" value="&lt;font style=&quot;font-size: 17px;&quot;&gt;label_splitted&lt;/font&gt;" style="text;align=center;fontStyle=1;verticalAlign=middle;spacingLeft=3;spacingRight=3;strokeColor=none;rotatable=0;points=[[0,0.5],[1,0.5]];portConstraint=eastwest;html=1;" vertex="1" parent="JxUX2Kx3jJCMiavoZk_R-60">
          <mxGeometry x="30" y="2.1727540016995857" width="80" height="31.0354505000126" as="geometry" />
        </mxCell>
        <mxCell id="JxUX2Kx3jJCMiavoZk_R-63" value="&lt;span style=&quot;font-size: 17px;&quot;&gt;localization&lt;/span&gt;" style="text;align=center;fontStyle=1;verticalAlign=middle;spacingLeft=3;spacingRight=3;strokeColor=none;rotatable=0;points=[[0,0.5],[1,0.5]];portConstraint=eastwest;html=1;" vertex="1" parent="JxUX2Kx3jJCMiavoZk_R-41">
          <mxGeometry x="23" y="-9.932687500000002" width="80" height="29.050937499999996" as="geometry" />
        </mxCell>
        <mxCell id="JxUX2Kx3jJCMiavoZk_R-68" value="" style="group" vertex="1" connectable="0" parent="1">
          <mxGeometry x="1387" y="1299" width="338" height="207" as="geometry" />
        </mxCell>
        <mxCell id="JxUX2Kx3jJCMiavoZk_R-69" value="" style="group" vertex="1" connectable="0" parent="JxUX2Kx3jJCMiavoZk_R-68">
          <mxGeometry width="338" height="206.99999999999997" as="geometry" />
        </mxCell>
        <mxCell id="JxUX2Kx3jJCMiavoZk_R-70" value="&lt;font style=&quot;font-size: 20px; font-weight: normal;&quot;&gt;&lt;blockquote style=&quot;margin: 0 0 0 40px; border: none; padding: 0px;&quot;&gt;در هنگام کار با نرم افزار تصاویری که انتخاب میشوند برای لیبل گذاری به شکل موقت فایل لیبل در این قسمت نگه داشته میشود و پس از ذخیره سازی نهایی به فولدر لیبل ها منتقل میشود&lt;/blockquote&gt;&lt;/font&gt;" style="shape=folder;fontStyle=1;spacingTop=10;tabWidth=183;tabHeight=35;tabPosition=left;html=1;whiteSpace=wrap;align=right;" vertex="1" parent="JxUX2Kx3jJCMiavoZk_R-69">
          <mxGeometry width="338" height="206.99999999999997" as="geometry" />
        </mxCell>
        <mxCell id="JxUX2Kx3jJCMiavoZk_R-71" value="&lt;font style=&quot;font-size: 17px;&quot;&gt;temp_annotations&lt;/font&gt;" style="text;align=center;fontStyle=1;verticalAlign=middle;spacingLeft=3;spacingRight=3;strokeColor=none;rotatable=0;points=[[0,0.5],[1,0.5]];portConstraint=eastwest;html=1;" vertex="1" parent="JxUX2Kx3jJCMiavoZk_R-69">
          <mxGeometry x="49" y="2.112499999999997" width="80" height="33.637499999999996" as="geometry" />
        </mxCell>
        <mxCell id="JxUX2Kx3jJCMiavoZk_R-72" value="" style="group" vertex="1" connectable="0" parent="1">
          <mxGeometry x="1387" y="1512.78" width="338" height="207" as="geometry" />
        </mxCell>
        <mxCell id="JxUX2Kx3jJCMiavoZk_R-73" value="" style="group" vertex="1" connectable="0" parent="JxUX2Kx3jJCMiavoZk_R-72">
          <mxGeometry width="338" height="206.99999999999997" as="geometry" />
        </mxCell>
        <mxCell id="JxUX2Kx3jJCMiavoZk_R-74" value="&lt;font style=&quot;font-size: 20px; font-weight: normal;&quot;&gt;&lt;blockquote style=&quot;margin: 0 0 0 40px; border: none; padding: 0px;&quot;&gt;در هنگام کار با نرم افزار تصاویری که انتخاب میشوند به شکل موقت در این قسمت ذخیره میشوند و پس از ذخیره نهایی به فولدر تصاویر منتقل میشوند&lt;/blockquote&gt;&lt;/font&gt;" style="shape=folder;fontStyle=1;spacingTop=10;tabWidth=183;tabHeight=35;tabPosition=left;html=1;whiteSpace=wrap;align=right;" vertex="1" parent="JxUX2Kx3jJCMiavoZk_R-73">
          <mxGeometry width="338" height="206.99999999999997" as="geometry" />
        </mxCell>
        <mxCell id="JxUX2Kx3jJCMiavoZk_R-75" value="&lt;font style=&quot;font-size: 17px;&quot;&gt;temp_images&lt;/font&gt;" style="text;align=center;fontStyle=1;verticalAlign=middle;spacingLeft=3;spacingRight=3;strokeColor=none;rotatable=0;points=[[0,0.5],[1,0.5]];portConstraint=eastwest;html=1;" vertex="1" parent="JxUX2Kx3jJCMiavoZk_R-73">
          <mxGeometry x="35" y="2.112499999999997" width="80" height="33.637499999999996" as="geometry" />
        </mxCell>
        <mxCell id="JxUX2Kx3jJCMiavoZk_R-76" value="" style="group" vertex="1" connectable="0" parent="1">
          <mxGeometry x="1387" y="1728.17" width="373" height="440" as="geometry" />
        </mxCell>
        <mxCell id="JxUX2Kx3jJCMiavoZk_R-77" value="" style="group" vertex="1" connectable="0" parent="JxUX2Kx3jJCMiavoZk_R-76">
          <mxGeometry width="373" height="440" as="geometry" />
        </mxCell>
        <mxCell id="JxUX2Kx3jJCMiavoZk_R-83" value="" style="group" vertex="1" connectable="0" parent="JxUX2Kx3jJCMiavoZk_R-77">
          <mxGeometry width="373" height="440" as="geometry" />
        </mxCell>
        <mxCell id="JxUX2Kx3jJCMiavoZk_R-78" value="&lt;font style=&quot;font-size: 20px; font-weight: normal;&quot;&gt;&lt;blockquote style=&quot;margin: 0 0 0 40px; border: none; padding: 0px;&quot;&gt;&lt;br&gt;&lt;/blockquote&gt;&lt;/font&gt;" style="shape=folder;fontStyle=1;spacingTop=10;tabWidth=183;tabHeight=35;tabPosition=left;html=1;whiteSpace=wrap;align=right;" vertex="1" parent="JxUX2Kx3jJCMiavoZk_R-83">
          <mxGeometry width="338" height="410" as="geometry" />
        </mxCell>
        <mxCell id="JxUX2Kx3jJCMiavoZk_R-79" value="&lt;span style=&quot;font-size: 17px;&quot;&gt;weights&lt;/span&gt;" style="text;align=center;fontStyle=1;verticalAlign=middle;spacingLeft=3;spacingRight=3;strokeColor=none;rotatable=0;points=[[0,0.5],[1,0.5]];portConstraint=eastwest;html=1;" vertex="1" parent="JxUX2Kx3jJCMiavoZk_R-83">
          <mxGeometry x="19" y="2.112499999999997" width="80" height="33.637499999999996" as="geometry" />
        </mxCell>
        <mxCell id="JxUX2Kx3jJCMiavoZk_R-80" value="&lt;font style=&quot;font-weight: normal; font-size: 20px;&quot;&gt;تمامی وزن هایی که با این دیتا ست&lt;br&gt;&amp;nbsp;اموزش داده شده اند در این قسمت &lt;br&gt;&lt;div style=&quot;text-align: right;&quot;&gt;&lt;span style=&quot;background-color: initial;&quot;&gt;قرار میگیرند&lt;/span&gt;&lt;/div&gt;&lt;/font&gt;" style="text;align=center;fontStyle=1;verticalAlign=middle;spacingLeft=3;spacingRight=3;strokeColor=none;rotatable=0;points=[[0,0.5],[1,0.5]];portConstraint=eastwest;html=1;" vertex="1" parent="JxUX2Kx3jJCMiavoZk_R-83">
          <mxGeometry x="113" y="51.83" width="142" height="60" as="geometry" />
        </mxCell>
        <mxCell id="JxUX2Kx3jJCMiavoZk_R-84" value="" style="group" vertex="1" connectable="0" parent="JxUX2Kx3jJCMiavoZk_R-83">
          <mxGeometry x="35" y="128.28999999999996" width="338" height="100" as="geometry" />
        </mxCell>
        <mxCell id="JxUX2Kx3jJCMiavoZk_R-85" value="" style="group" vertex="1" connectable="0" parent="JxUX2Kx3jJCMiavoZk_R-84">
          <mxGeometry width="338" height="100" as="geometry" />
        </mxCell>
        <mxCell id="JxUX2Kx3jJCMiavoZk_R-86" value="&lt;font style=&quot;font-size: 20px; font-weight: normal;&quot;&gt;&lt;blockquote style=&quot;margin: 0 0 0 40px; border: none; padding: 0px;&quot;&gt;&lt;br&gt;&lt;/blockquote&gt;&lt;/font&gt;" style="shape=folder;fontStyle=1;spacingTop=10;tabWidth=148;tabHeight=30;tabPosition=left;html=1;whiteSpace=wrap;align=right;" vertex="1" parent="JxUX2Kx3jJCMiavoZk_R-85">
          <mxGeometry width="220" height="60" as="geometry" />
        </mxCell>
        <mxCell id="JxUX2Kx3jJCMiavoZk_R-87" value="&lt;span style=&quot;font-size: 17px;&quot;&gt;binary&lt;/span&gt;" style="text;align=center;fontStyle=1;verticalAlign=middle;spacingLeft=3;spacingRight=3;strokeColor=none;rotatable=0;points=[[0,0.5],[1,0.5]];portConstraint=eastwest;html=1;" vertex="1" parent="JxUX2Kx3jJCMiavoZk_R-85">
          <mxGeometry x="-4" y="6.75" width="80" height="16.25" as="geometry" />
        </mxCell>
        <mxCell id="JxUX2Kx3jJCMiavoZk_R-92" value="" style="group" vertex="1" connectable="0" parent="JxUX2Kx3jJCMiavoZk_R-83">
          <mxGeometry x="34.99999999999994" y="191.82999999999993" width="338" height="100" as="geometry" />
        </mxCell>
        <mxCell id="JxUX2Kx3jJCMiavoZk_R-93" value="" style="group" vertex="1" connectable="0" parent="JxUX2Kx3jJCMiavoZk_R-92">
          <mxGeometry width="338" height="100" as="geometry" />
        </mxCell>
        <mxCell id="JxUX2Kx3jJCMiavoZk_R-94" value="&lt;font style=&quot;font-size: 20px; font-weight: normal;&quot;&gt;&lt;blockquote style=&quot;margin: 0 0 0 40px; border: none; padding: 0px;&quot;&gt;&lt;br&gt;&lt;/blockquote&gt;&lt;/font&gt;" style="shape=folder;fontStyle=1;spacingTop=10;tabWidth=148;tabHeight=30;tabPosition=left;html=1;whiteSpace=wrap;align=right;" vertex="1" parent="JxUX2Kx3jJCMiavoZk_R-93">
          <mxGeometry width="220" height="60" as="geometry" />
        </mxCell>
        <mxCell id="JxUX2Kx3jJCMiavoZk_R-95" value="&lt;span style=&quot;font-size: 17px;&quot;&gt;classification&lt;/span&gt;" style="text;align=center;fontStyle=1;verticalAlign=middle;spacingLeft=3;spacingRight=3;strokeColor=none;rotatable=0;points=[[0,0.5],[1,0.5]];portConstraint=eastwest;html=1;" vertex="1" parent="JxUX2Kx3jJCMiavoZk_R-93">
          <mxGeometry x="23" y="6.75" width="81" height="16.25" as="geometry" />
        </mxCell>
        <mxCell id="JxUX2Kx3jJCMiavoZk_R-88" value="" style="group" vertex="1" connectable="0" parent="JxUX2Kx3jJCMiavoZk_R-83">
          <mxGeometry x="35" y="257.83000000000004" width="338" height="100" as="geometry" />
        </mxCell>
        <mxCell id="JxUX2Kx3jJCMiavoZk_R-89" value="" style="group" vertex="1" connectable="0" parent="JxUX2Kx3jJCMiavoZk_R-88">
          <mxGeometry width="338" height="100" as="geometry" />
        </mxCell>
        <mxCell id="JxUX2Kx3jJCMiavoZk_R-90" value="&lt;font style=&quot;font-size: 20px; font-weight: normal;&quot;&gt;&lt;blockquote style=&quot;margin: 0 0 0 40px; border: none; padding: 0px;&quot;&gt;&lt;br&gt;&lt;/blockquote&gt;&lt;/font&gt;" style="shape=folder;fontStyle=1;spacingTop=10;tabWidth=148;tabHeight=30;tabPosition=left;html=1;whiteSpace=wrap;align=right;" vertex="1" parent="JxUX2Kx3jJCMiavoZk_R-89">
          <mxGeometry width="220" height="60" as="geometry" />
        </mxCell>
        <mxCell id="JxUX2Kx3jJCMiavoZk_R-91" value="&lt;span style=&quot;font-size: 17px;&quot;&gt;localization&lt;/span&gt;" style="text;align=center;fontStyle=1;verticalAlign=middle;spacingLeft=3;spacingRight=3;strokeColor=none;rotatable=0;points=[[0,0.5],[1,0.5]];portConstraint=eastwest;html=1;" vertex="1" parent="JxUX2Kx3jJCMiavoZk_R-89">
          <mxGeometry x="18" y="6.75" width="80" height="16.25" as="geometry" />
        </mxCell>
        <mxCell id="JxUX2Kx3jJCMiavoZk_R-96" value="" style="group" vertex="1" connectable="0" parent="1">
          <mxGeometry x="1422" y="2069.17" width="398" height="100" as="geometry" />
        </mxCell>
        <mxCell id="JxUX2Kx3jJCMiavoZk_R-97" value="" style="group" vertex="1" connectable="0" parent="JxUX2Kx3jJCMiavoZk_R-96">
          <mxGeometry width="398.00000000000006" height="100" as="geometry" />
        </mxCell>
        <mxCell id="JxUX2Kx3jJCMiavoZk_R-98" value="&lt;font style=&quot;font-size: 20px; font-weight: normal;&quot;&gt;&lt;blockquote style=&quot;margin: 0 0 0 40px; border: none; padding: 0px;&quot;&gt;&lt;br&gt;&lt;/blockquote&gt;&lt;/font&gt;" style="shape=folder;fontStyle=1;spacingTop=10;tabWidth=258;tabHeight=27;tabPosition=left;html=1;whiteSpace=wrap;align=right;" vertex="1" parent="JxUX2Kx3jJCMiavoZk_R-97">
          <mxGeometry width="290" height="60" as="geometry" />
        </mxCell>
        <mxCell id="JxUX2Kx3jJCMiavoZk_R-99" value="&lt;font style=&quot;font-size: 17px;&quot;&gt;localization_and_classification&lt;/font&gt;" style="text;align=center;fontStyle=1;verticalAlign=middle;spacingLeft=3;spacingRight=3;strokeColor=none;rotatable=0;points=[[0,0.5],[1,0.5]];portConstraint=eastwest;html=1;" vertex="1" parent="JxUX2Kx3jJCMiavoZk_R-97">
          <mxGeometry x="80.62130177514793" y="6.75" width="94.20118343195266" height="16.25" as="geometry" />
        </mxCell>
        <mxCell id="JxUX2Kx3jJCMiavoZk_R-105" value="" style="group" vertex="1" connectable="0" parent="1">
          <mxGeometry x="1387" y="2155.07" width="338" height="130" as="geometry" />
        </mxCell>
        <mxCell id="JxUX2Kx3jJCMiavoZk_R-106" value="" style="group" vertex="1" connectable="0" parent="JxUX2Kx3jJCMiavoZk_R-105">
          <mxGeometry width="338" height="130" as="geometry" />
        </mxCell>
        <mxCell id="JxUX2Kx3jJCMiavoZk_R-107" value="&lt;font style=&quot;font-size: 20px; font-weight: normal;&quot;&gt;&lt;blockquote style=&quot;margin: 0 0 0 40px; border: none; padding: 0px;&quot;&gt;تصاویری که در هنگام ارزیابی توسط مدل اشتباه تشخیص داده میشوند در این فولدر قرار میگیرند&lt;/blockquote&gt;&lt;/font&gt;" style="shape=folder;fontStyle=1;spacingTop=10;tabWidth=233;tabHeight=30;tabPosition=left;html=1;whiteSpace=wrap;align=right;" vertex="1" parent="JxUX2Kx3jJCMiavoZk_R-106">
          <mxGeometry width="338" height="130" as="geometry" />
        </mxCell>
        <mxCell id="JxUX2Kx3jJCMiavoZk_R-108" value="&lt;font style=&quot;font-size: 17px;&quot;&gt;wrong_predict_images&lt;/font&gt;" style="text;align=center;fontStyle=1;verticalAlign=middle;spacingLeft=3;spacingRight=3;strokeColor=none;rotatable=0;points=[[0,0.5],[1,0.5]];portConstraint=eastwest;html=1;" vertex="1" parent="JxUX2Kx3jJCMiavoZk_R-106">
          <mxGeometry x="73" y="8.775" width="80" height="21.125" as="geometry" />
        </mxCell>
        <mxCell id="JxUX2Kx3jJCMiavoZk_R-111" value="" style="shape=note;size=27;whiteSpace=wrap;html=1;" vertex="1" parent="1">
          <mxGeometry x="1750" y="1296" width="270" height="526" as="geometry" />
        </mxCell>
        <mxCell id="JxUX2Kx3jJCMiavoZk_R-113" value="" style="line;strokeWidth=1;fillColor=none;align=left;verticalAlign=middle;spacingTop=-1;spacingLeft=3;spacingRight=3;rotatable=0;labelPosition=right;points=[];portConstraint=eastwest;strokeColor=inherit;" vertex="1" parent="1">
          <mxGeometry x="1760" y="1334" width="240" height="8" as="geometry" />
        </mxCell>
        <mxCell id="JxUX2Kx3jJCMiavoZk_R-114" value="&lt;font style=&quot;font-size: 17px;&quot;&gt;{name}_dataset.json&lt;/font&gt;" style="text;align=center;fontStyle=1;verticalAlign=middle;spacingLeft=3;spacingRight=3;strokeColor=none;rotatable=0;points=[[0,0.5],[1,0.5]];portConstraint=eastwest;html=1;" vertex="1" parent="1">
          <mxGeometry x="1810" y="1308" width="80" height="26" as="geometry" />
        </mxCell>
        <mxCell id="JxUX2Kx3jJCMiavoZk_R-115" value="&lt;span style=&quot;font-size: 17px; font-weight: 400;&quot;&gt;اطلاعات پایه شامل&amp;nbsp;&lt;br&gt;&lt;br&gt;نام دیتابیس&lt;br&gt;تاریخ درست کردن&amp;nbsp;&lt;br&gt;تاریخ اخرین تغییر&lt;br&gt;آدرس&lt;br&gt;ایدی تشکیل دهنده دیتابیس&lt;br&gt;و نام کاربری شخصی که دیتابیس&lt;br&gt;&amp;nbsp;را تشکیل داده است&lt;br&gt;&lt;/span&gt;" style="text;align=right;fontStyle=1;verticalAlign=middle;spacingLeft=3;spacingRight=3;strokeColor=none;rotatable=0;points=[[0,0.5],[1,0.5]];portConstraint=eastwest;html=1;" vertex="1" parent="1">
          <mxGeometry x="1765" y="1326" width="240" height="264" as="geometry" />
        </mxCell>
        <mxCell id="JxUX2Kx3jJCMiavoZk_R-116" value="&lt;span style=&quot;font-size: 17px; font-weight: 400;&quot;&gt;ذخیره کردن تعداد تصاویر سالم و&lt;br&gt;معیوب دیتاست برای نمایش &lt;br&gt;در نرم افزار و چارت ها&lt;br&gt;&lt;/span&gt;" style="text;align=right;fontStyle=1;verticalAlign=middle;spacingLeft=3;spacingRight=3;strokeColor=none;rotatable=0;points=[[0,0.5],[1,0.5]];portConstraint=eastwest;html=1;" vertex="1" parent="1">
          <mxGeometry x="1765" y="1576" width="240" height="114" as="geometry" />
        </mxCell>
        <mxCell id="JxUX2Kx3jJCMiavoZk_R-118" value="" style="endArrow=none;dashed=1;html=1;rounded=0;entryX=1.002;entryY=0.002;entryDx=0;entryDy=0;entryPerimeter=0;exitX=0;exitY=0.016;exitDx=0;exitDy=0;exitPerimeter=0;" edge="1" parent="1" target="JxUX2Kx3jJCMiavoZk_R-116">
          <mxGeometry width="50" height="50" relative="1" as="geometry">
            <mxPoint x="1765" y="1575.824" as="sourcePoint" />
            <mxPoint x="2004.2799999999997" y="1574.5700000000002" as="targetPoint" />
          </mxGeometry>
        </mxCell>
        <mxCell id="JxUX2Kx3jJCMiavoZk_R-119" value="&lt;span style=&quot;font-size: 17px; font-weight: 400;&quot;&gt;هم چنین ذخیره کردن دسته بندی&amp;nbsp;&lt;br&gt;تصاویر برای اینکه مشخص باشد&amp;nbsp;&lt;br&gt;از هر عیب چه تعداد در این دیتاست&lt;br&gt;موجود میباشد و هر عیب متعلق&lt;br&gt;به چه عکسی میباشد&lt;br&gt;&lt;/span&gt;" style="text;align=right;fontStyle=1;verticalAlign=middle;spacingLeft=3;spacingRight=3;strokeColor=none;rotatable=0;points=[[0,0.5],[1,0.5]];portConstraint=eastwest;html=1;" vertex="1" parent="1">
          <mxGeometry x="1764.52" y="1692.1799999999998" width="240" height="114" as="geometry" />
        </mxCell>
        <mxCell id="JxUX2Kx3jJCMiavoZk_R-120" value="" style="endArrow=none;dashed=1;html=1;rounded=0;entryX=1.002;entryY=0.002;entryDx=0;entryDy=0;entryPerimeter=0;exitX=0;exitY=0.016;exitDx=0;exitDy=0;exitPerimeter=0;" edge="1" parent="1" target="JxUX2Kx3jJCMiavoZk_R-119">
          <mxGeometry width="50" height="50" relative="1" as="geometry">
            <mxPoint x="1764.52" y="1692.004" as="sourcePoint" />
            <mxPoint x="2003.7999999999997" y="1690.75" as="targetPoint" />
          </mxGeometry>
        </mxCell>
        <mxCell id="5TA8-3koPhKkjeQelwCI-6" value="PLC" style="rounded=0;whiteSpace=wrap;html=1;" vertex="1" parent="1">
          <mxGeometry x="2250" y="32" width="120" height="60" as="geometry" />
        </mxCell>
        <mxCell id="JxUX2Kx3jJCMiavoZk_R-125" style="edgeStyle=orthogonalEdgeStyle;rounded=0;orthogonalLoop=1;jettySize=auto;html=1;exitX=0.5;exitY=0;exitDx=0;exitDy=0;entryX=0.6;entryY=0.993;entryDx=0;entryDy=0;entryPerimeter=0;" edge="1" parent="1" source="JxUX2Kx3jJCMiavoZk_R-121" target="5TA8-3koPhKkjeQelwCI-6">
          <mxGeometry relative="1" as="geometry" />
        </mxCell>
        <mxCell id="JxUX2Kx3jJCMiavoZk_R-128" value="&lt;div style=&quot;text-align: left;&quot;&gt;24camera&lt;/div&gt;&lt;div style=&quot;text-align: left;&quot;&gt;fiberoptic&lt;/div&gt;" style="rounded=1;whiteSpace=wrap;html=1;" vertex="1" parent="1">
          <mxGeometry x="2900" y="714" width="120" height="60" as="geometry" />
        </mxCell>
        <mxCell id="JxUX2Kx3jJCMiavoZk_R-131" value="&lt;font style=&quot;font-size: 20px;&quot;&gt;Dataset path structure&lt;/font&gt;" style="text;align=center;fontStyle=1;verticalAlign=middle;spacingLeft=3;spacingRight=3;strokeColor=none;rotatable=0;points=[[0,0.5],[1,0.5]];portConstraint=eastwest;html=1;" vertex="1" parent="1">
          <mxGeometry x="545" y="1262.75" width="80" height="16.25" as="geometry" />
        </mxCell>
        <mxCell id="JxUX2Kx3jJCMiavoZk_R-133" value="" style="rounded=1;whiteSpace=wrap;html=1;fillColor=#fff2cc;strokeColor=#d6b656;" vertex="1" parent="1">
          <mxGeometry x="-550" y="32" width="390" height="360" as="geometry" />
        </mxCell>
        <mxCell id="JxUX2Kx3jJCMiavoZk_R-134" value="" style="group" vertex="1" connectable="0" parent="1">
          <mxGeometry x="-520" y="232.92" width="220" height="76" as="geometry" />
        </mxCell>
        <mxCell id="JxUX2Kx3jJCMiavoZk_R-135" value="" style="group" vertex="1" connectable="0" parent="JxUX2Kx3jJCMiavoZk_R-134">
          <mxGeometry width="220" height="76" as="geometry" />
        </mxCell>
        <mxCell id="JxUX2Kx3jJCMiavoZk_R-136" value="&lt;font style=&quot;font-size: 20px; font-weight: normal;&quot;&gt;&lt;blockquote style=&quot;margin: 0 0 0 40px; border: none; padding: 0px;&quot;&gt;&lt;br&gt;&lt;/blockquote&gt;&lt;/font&gt;" style="shape=folder;fontStyle=1;spacingTop=10;tabWidth=148;tabHeight=30;tabPosition=left;html=1;whiteSpace=wrap;align=right;" vertex="1" parent="JxUX2Kx3jJCMiavoZk_R-135">
          <mxGeometry width="220" height="76" as="geometry" />
        </mxCell>
        <mxCell id="JxUX2Kx3jJCMiavoZk_R-143" value="{Folder name}" style="text;align=center;fontStyle=1;verticalAlign=middle;spacingLeft=3;spacingRight=3;strokeColor=none;rotatable=0;points=[[0,0.5],[1,0.5]];portConstraint=eastwest;html=1;" vertex="1" parent="JxUX2Kx3jJCMiavoZk_R-135">
          <mxGeometry x="10" y="1.2503886814840826e-14" width="80" height="26" as="geometry" />
        </mxCell>
        <mxCell id="JxUX2Kx3jJCMiavoZk_R-144" value="{Contents}" style="text;align=center;fontStyle=1;verticalAlign=middle;spacingLeft=3;spacingRight=3;strokeColor=none;rotatable=0;points=[[0,0.5],[1,0.5]];portConstraint=eastwest;html=1;" vertex="1" parent="JxUX2Kx3jJCMiavoZk_R-135">
          <mxGeometry x="20" y="39.08000000000001" width="80" height="26" as="geometry" />
        </mxCell>
        <mxCell id="JxUX2Kx3jJCMiavoZk_R-138" value="&lt;font style=&quot;font-size: 20px;&quot;&gt;Folder&lt;/font&gt;" style="text;align=center;fontStyle=1;verticalAlign=middle;spacingLeft=3;spacingRight=3;strokeColor=none;rotatable=0;points=[[0,0.5],[1,0.5]];portConstraint=eastwest;html=1;" vertex="1" parent="1">
          <mxGeometry x="-280" y="252" width="80" height="26" as="geometry" />
        </mxCell>
        <mxCell id="JxUX2Kx3jJCMiavoZk_R-139" value="{module name}" style="swimlane;fontStyle=1;align=center;verticalAlign=top;childLayout=stackLayout;horizontal=1;startSize=26;horizontalStack=0;resizeParent=1;resizeParentMax=0;resizeLast=0;collapsible=1;marginBottom=0;whiteSpace=wrap;html=1;" vertex="1" parent="1">
          <mxGeometry x="-520" y="82" width="180" height="80" as="geometry">
            <mxRectangle x="227.27272727272728" y="38" width="431.81818181818187" height="30" as="alternateBounds" />
          </mxGeometry>
        </mxCell>
        <mxCell id="JxUX2Kx3jJCMiavoZk_R-140" value="{class name}" style="swimlane;fontStyle=1;align=center;verticalAlign=top;childLayout=stackLayout;horizontal=1;startSize=26;horizontalStack=0;resizeParent=1;resizeParentMax=0;resizeLast=0;collapsible=1;marginBottom=0;whiteSpace=wrap;html=1;" vertex="1" parent="JxUX2Kx3jJCMiavoZk_R-139">
          <mxGeometry y="26" width="180" height="54" as="geometry" />
        </mxCell>
        <mxCell id="B9SvIuIJmfx28Xislmgf-100" value="" style="group" connectable="0" vertex="1" parent="1">
          <mxGeometry x="2137" y="1580" width="780" height="440" as="geometry" />
        </mxCell>
        <mxCell id="B9SvIuIJmfx28Xislmgf-102" value="" style="group" connectable="0" vertex="1" parent="B9SvIuIJmfx28Xislmgf-100">
          <mxGeometry x="10" y="35.2" width="770" height="404.8" as="geometry" />
        </mxCell>
        <mxCell id="B9SvIuIJmfx28Xislmgf-103" value="&lt;p style=&quot;text-align: justify;&quot;&gt;&lt;br&gt;&lt;/p&gt;" style="rounded=0;whiteSpace=wrap;html=1;fillColor=#f8cecc;strokeColor=#b85450;align=left;" vertex="1" parent="B9SvIuIJmfx28Xislmgf-102">
          <mxGeometry x="-5" y="-2.9333333333333336" width="770" height="404.8" as="geometry" />
        </mxCell>
        <mxCell id="B9SvIuIJmfx28Xislmgf-126" value="Variance" style="swimlane;fontStyle=1;align=center;verticalAlign=top;childLayout=stackLayout;horizontal=1;startSize=26;horizontalStack=0;resizeParent=1;resizeParentMax=0;resizeLast=0;collapsible=1;marginBottom=0;whiteSpace=wrap;html=1;" vertex="1" parent="B9SvIuIJmfx28Xislmgf-102">
          <mxGeometry x="523" y="164.8" width="240" height="95.2" as="geometry">
            <mxRectangle x="300.00272727272727" y="230" width="431.81818181818187" height="30" as="alternateBounds" />
          </mxGeometry>
        </mxCell>
        <mxCell id="B9SvIuIJmfx28Xislmgf-132" value="SteelSurfaceInspection" style="swimlane;fontStyle=1;align=center;verticalAlign=top;childLayout=stackLayout;horizontal=1;startSize=26;horizontalStack=0;resizeParent=1;resizeParentMax=0;resizeLast=0;collapsible=1;marginBottom=0;whiteSpace=wrap;html=1;" vertex="1" parent="B9SvIuIJmfx28Xislmgf-102">
          <mxGeometry x="265" y="176.84" width="240" height="140" as="geometry">
            <mxRectangle x="227.27272727272728" y="323" width="431.81818181818187" height="30" as="alternateBounds" />
          </mxGeometry>
        </mxCell>
        <mxCell id="B9SvIuIJmfx28Xislmgf-134" value="+ field: type" style="text;strokeColor=none;fillColor=none;align=left;verticalAlign=top;spacingLeft=4;spacingRight=4;overflow=hidden;rotatable=0;points=[[0,0.5],[1,0.5]];portConstraint=eastwest;whiteSpace=wrap;html=1;" vertex="1" parent="B9SvIuIJmfx28Xislmgf-132">
          <mxGeometry y="26" width="240" height="114" as="geometry" />
        </mxCell>
        <mxCell id="B9SvIuIJmfx28Xislmgf-143" value="Division" style="swimlane;fontStyle=1;align=center;verticalAlign=top;childLayout=stackLayout;horizontal=1;startSize=26;horizontalStack=0;resizeParent=1;resizeParentMax=0;resizeLast=0;collapsible=1;marginBottom=0;whiteSpace=wrap;html=1;" vertex="1" parent="B9SvIuIJmfx28Xislmgf-102">
          <mxGeometry x="10.002727272727299" y="4.171851851851852" width="240" height="80" as="geometry">
            <mxRectangle x="227.27272727272728" y="38" width="431.81818181818187" height="30" as="alternateBounds" />
          </mxGeometry>
        </mxCell>
        <mxCell id="B9SvIuIJmfx28Xislmgf-146" value="+ item: attribute" style="text;strokeColor=none;fillColor=none;align=left;verticalAlign=top;spacingLeft=4;spacingRight=4;overflow=hidden;rotatable=0;points=[[0,0.5],[1,0.5]];portConstraint=eastwest;whiteSpace=wrap;html=1;" vertex="1" parent="B9SvIuIJmfx28Xislmgf-143">
          <mxGeometry y="26" width="240" height="54" as="geometry" />
        </mxCell>
        <mxCell id="B9SvIuIJmfx28Xislmgf-147" value="Preprocessing" style="swimlane;fontStyle=1;align=center;verticalAlign=top;childLayout=stackLayout;horizontal=1;startSize=26;horizontalStack=0;resizeParent=1;resizeParentMax=0;resizeLast=0;collapsible=1;marginBottom=0;whiteSpace=wrap;html=1;" vertex="1" parent="B9SvIuIJmfx28Xislmgf-102">
          <mxGeometry x="10" y="139.93" width="240" height="110.07" as="geometry">
            <mxRectangle x="170.00272727272727" y="183" width="431.81818181818187" height="30" as="alternateBounds" />
          </mxGeometry>
        </mxCell>
        <mxCell id="B9SvIuIJmfx28Xislmgf-151" value="Noise" style="swimlane;fontStyle=1;align=center;verticalAlign=top;childLayout=stackLayout;horizontal=1;startSize=26;horizontalStack=0;resizeParent=1;resizeParentMax=0;resizeLast=0;collapsible=1;marginBottom=0;whiteSpace=wrap;html=1;" vertex="1" parent="B9SvIuIJmfx28Xislmgf-102">
          <mxGeometry x="510.0027272727272" y="4.171851851851852" width="240" height="99.99729344729346" as="geometry">
            <mxRectangle x="227.27272727272728" y="213" width="431.81818181818187" height="30" as="alternateBounds" />
          </mxGeometry>
        </mxCell>
        <mxCell id="B9SvIuIJmfx28Xislmgf-153" value="" style="line;strokeWidth=1;fillColor=none;align=left;verticalAlign=middle;spacingTop=-1;spacingLeft=3;spacingRight=3;rotatable=0;labelPosition=right;points=[];portConstraint=eastwest;strokeColor=inherit;" vertex="1" parent="B9SvIuIJmfx28Xislmgf-151">
          <mxGeometry y="26" width="240" height="2.5672934472934474" as="geometry" />
        </mxCell>
        <mxCell id="B9SvIuIJmfx28Xislmgf-154" value="+ item: attribute" style="text;strokeColor=none;fillColor=none;align=left;verticalAlign=top;spacingLeft=4;spacingRight=4;overflow=hidden;rotatable=0;points=[[0,0.5],[1,0.5]];portConstraint=eastwest;whiteSpace=wrap;html=1;" vertex="1" parent="B9SvIuIJmfx28Xislmgf-151">
          <mxGeometry y="28.567293447293448" width="240" height="71.43" as="geometry" />
        </mxCell>
        <mxCell id="B9SvIuIJmfx28Xislmgf-155" value="main" style="swimlane;fontStyle=1;align=center;verticalAlign=top;childLayout=stackLayout;horizontal=1;startSize=26;horizontalStack=0;resizeParent=1;resizeParentMax=0;resizeLast=0;collapsible=1;marginBottom=0;whiteSpace=wrap;html=1;" vertex="1" parent="B9SvIuIJmfx28Xislmgf-102">
          <mxGeometry x="260" y="4.17" width="240" height="130" as="geometry">
            <mxRectangle x="450.00272727272727" y="473" width="431.81818181818187" height="30" as="alternateBounds" />
          </mxGeometry>
        </mxCell>
        <mxCell id="B9SvIuIJmfx28Xislmgf-194" value="Defect_detection_modules" style="text;align=center;fontStyle=1;verticalAlign=middle;spacingLeft=3;spacingRight=3;strokeColor=none;rotatable=0;points=[[0,0.5],[1,0.5]];portConstraint=eastwest;html=1;fontSize=17;" vertex="1" parent="B9SvIuIJmfx28Xislmgf-100">
          <mxGeometry x="20" y="20.333333333333332" width="181.81818181818184" height="7.626666666666667" as="geometry" />
        </mxCell>
        <mxCell id="JxUX2Kx3jJCMiavoZk_R-18" value="&lt;span style=&quot;font-size: 17px;&quot;&gt;binary&lt;/span&gt;" style="text;align=center;fontStyle=1;verticalAlign=middle;spacingLeft=3;spacingRight=3;strokeColor=none;rotatable=0;points=[[0,0.5],[1,0.5]];portConstraint=eastwest;html=1;" vertex="1" parent="1">
          <mxGeometry x="1922" y="2729.9973125" width="80" height="29.050937499999996" as="geometry" />
        </mxCell>
        <mxCell id="B9SvIuIJmfx28Xislmgf-201" value="" style="group" connectable="0" vertex="1" parent="1">
          <mxGeometry x="1390" y="820" width="418" height="70" as="geometry" />
        </mxCell>
        <mxCell id="B9SvIuIJmfx28Xislmgf-199" value="&lt;font style=&quot;font-size: 17px;&quot;&gt;تعدادی از فونت ها بر روی لینوکس موجود نمیباشد این فونت ها در این قسمت قرار گرفته است&lt;/font&gt;" style="rounded=0;whiteSpace=wrap;html=1;fillColor=#efccff;strokeColor=#d6b656;" vertex="1" parent="B9SvIuIJmfx28Xislmgf-201">
          <mxGeometry x="20" y="20" width="398" height="50" as="geometry" />
        </mxCell>
        <mxCell id="B9SvIuIJmfx28Xislmgf-200" value="&lt;span style=&quot;font-size: 20px;&quot;&gt;Font&lt;/span&gt;" style="text;align=center;fontStyle=1;verticalAlign=middle;spacingLeft=3;spacingRight=3;strokeColor=none;rotatable=0;points=[[0,0.5],[1,0.5]];portConstraint=eastwest;html=1;" vertex="1" parent="B9SvIuIJmfx28Xislmgf-201">
          <mxGeometry width="80" height="15.25" as="geometry" />
        </mxCell>
        <mxCell id="B9SvIuIJmfx28Xislmgf-202" value="" style="group" connectable="0" vertex="1" parent="1">
          <mxGeometry x="1390" y="930" width="418" height="70" as="geometry" />
        </mxCell>
        <mxCell id="B9SvIuIJmfx28Xislmgf-203" value="&lt;font style=&quot;font-size: 17px;&quot;&gt;آیکن ها و تصاویر مرتبط برای نرم افزار در این قسمت میباشد&lt;/font&gt;" style="rounded=0;whiteSpace=wrap;html=1;fillColor=#efccff;strokeColor=#d6b656;" vertex="1" parent="B9SvIuIJmfx28Xislmgf-202">
          <mxGeometry x="20" y="20" width="398" height="50" as="geometry" />
        </mxCell>
        <mxCell id="B9SvIuIJmfx28Xislmgf-204" value="&lt;span style=&quot;font-size: 20px;&quot;&gt;Images&lt;/span&gt;" style="text;align=center;fontStyle=1;verticalAlign=middle;spacingLeft=3;spacingRight=3;strokeColor=none;rotatable=0;points=[[0,0.5],[1,0.5]];portConstraint=eastwest;html=1;" vertex="1" parent="B9SvIuIJmfx28Xislmgf-202">
          <mxGeometry x="13" width="80" height="15.25" as="geometry" />
        </mxCell>
        <mxCell id="B9SvIuIJmfx28Xislmgf-205" value="" style="group" connectable="0" vertex="1" parent="1">
          <mxGeometry x="510" y="340" width="690" height="370" as="geometry" />
        </mxCell>
        <mxCell id="B9SvIuIJmfx28Xislmgf-206" value="&lt;font style=&quot;font-size: 17px;&quot;&gt;تعدادی از فونت ها بر روی لینوکس موجود نمیباشد این فونت ها در این قسمت قرار گرفته است&lt;/font&gt;" style="rounded=0;whiteSpace=wrap;html=1;fillColor=#efccff;strokeColor=#d6b656;" vertex="1" parent="B9SvIuIJmfx28Xislmgf-205">
          <mxGeometry x="20" y="20" width="670" height="350" as="geometry" />
        </mxCell>
        <mxCell id="B9SvIuIJmfx28Xislmgf-207" value="&lt;span style=&quot;font-size: 20px;&quot;&gt;Labeling&lt;/span&gt;" style="text;align=center;fontStyle=1;verticalAlign=middle;spacingLeft=3;spacingRight=3;strokeColor=none;rotatable=0;points=[[0,0.5],[1,0.5]];portConstraint=eastwest;html=1;" vertex="1" parent="B9SvIuIJmfx28Xislmgf-205">
          <mxGeometry x="19" width="80" height="15.25" as="geometry" />
        </mxCell>
      </root>
    </mxGraphModel>
  </diagram>
</mxfile>
